<?xml version="1.0" encoding="utf-8"?>
<!-- Generator: Adobe Illustrator 24.2.3, SVG Export Plug-In . SVG Version: 6.00 Build 0)  -->
<svg version="1.1" id="Ebene_1" xmlns="http://www.w3.org/2000/svg" xmlns:xlink="http://www.w3.org/1999/xlink" x="0px" y="0px"
	 viewBox="0 0 98.6 98.6" style="enable-background:new 0 0 98.6 98.6;" xml:space="preserve">
<style type="text/css">
	.st0{fill:#FFFFFF;}
	.st1{fill-rule:evenodd;clip-rule:evenodd;fill:#00A4B7;stroke:#00A4B7;stroke-width:0.5;stroke-miterlimit:10;}
	.st2{fill:none;stroke:#00A4B7;stroke-width:1.82;stroke-miterlimit:22.93;}
</style>
<path class="st0" d="M0,49.2c0-7.7,0-15.4,0-23.1c-0.1-4.1,0.9-8.1,2.7-11.8C6.3,6.9,13.3,1.7,21.6,0.4C22.9,0.1,24.3,0,25.7,0
	c15.8,0,31.6-0.1,47.4,0c14.1,0,25.5,11.4,25.5,25.5c0,0.1,0,0.2,0,0.3c0,15.7,0,31.4,0,47.1C98.6,87,87.1,98.5,73,98.6
	c-0.1,0-0.1,0-0.2,0H25.7c-11.9,0-22.3-8.2-25-19.8C0.2,76.6,0,74.4,0,72.2C0,64.5,0,56.9,0,49.2z"/>
<path class="st1" d="M70.5,61.8C70.5,61.8,70.5,61.8,70.5,61.8L70.5,61.8z M69.2,52.7c0.6,3-1.4,3.6-2.9,5.6c-0.9,0.8-1.5,1.8-1.8,3
	c0.5,1.3-0.5,1-0.5,0.6s-0.1-0.9-0.1-1.4c0-1.3,1.3-1.8,1.9-2.6c0.4-1.3,1.9-1.9,2.5-2.9c0.8-0.6,0.7-1.6,1-2.4L69.2,52.7z
	 M64.7,50.8c0,0.6,0.3,2.2-0.4,2.7C64,54,63.2,56,62.7,56c-0.2-1,1.5-2.2,1.5-3.5c0-0.3,0.2-0.4,0.2-0.7
	C64.4,51.6,64.3,50.1,64.7,50.8z M67.4,49.8c0.6-0.2,0.5,2.8,0.2,3.4c0.9,0.4,0.2-3.4,0.2-3.9c0.2,0,0.4-0.1,0.6,0
	c0.2,0.5,0.4,1,0.4,1.5c0.3,0.3-0.4,3.1-0.6,3.5c-0.6,0.9-1.6,1.3-2.2,2.2c0,0-2.7,3.9-2.5,2.3c-0.2-0.5,0.9-1.4,1.1-1.7
	c0.7-0.4,1.9-3.6,2.1-4.5c0.5-0.5,0.2-2-0.3-2.6C66.3,49,66.7,49.2,67.4,49.8z M60,49.2c0.1,0.2-0.3,0.2-0.3,0.3
	C59.2,49.6,59.8,49.2,60,49.2z M58.2,49.8c-0.2,0.3-0.4-1.2-0.1-1.1L58.2,49.8z M60.9,48.3c-0.2,0.3-0.4,0.6-0.7,0.8
	C60.2,48.8,60.9,48.4,60.9,48.3L60.9,48.3z M70.7,47.2c0.2,0.4-0.1,0.8-0.1,1.2c-0.1,0.7-0.1,1.5,0,2.2c-0.6,0-0.4,1-0.6,1
	c0-0.9-0.1-1.9-0.3-2.8c0.1,0.2,0.3,0.1,0.5,0.1C70.7,48.7,70.3,46.4,70.7,47.2L70.7,47.2z M61.7,46.5c-0.1,0.6-0.7,0-0.7,0.5
	c-0.2,0.2-0.4,0.4-0.6,0.6c-0.1,0-0.9,0.1-0.7,0.4c0.4,0.1-1,1.4-1.3,1.3c0-0.2,0-0.3,0.2-0.4c-0.5-0.2-0.5-1.4-0.5-1.4
	c0,0,0.2-0.1,0.2-0.2c0.3,0.1,0.5-0.4,0.8-0.3C59.6,47.4,61.7,46.5,61.7,46.5L61.7,46.5z M69.4,46c0,0.3,0.6,3.3,0.2,2.8
	c-0.3-1-0.4-2-0.4-2.9C69.3,45.8,69.2,46.1,69.4,46L69.4,46z M57.8,46.4c0,0,0.1,0.2,0.1,0.2c0.4,0.4,0.6,0.2,0.8,0.3
	c0,0.4-1.3,0.1-1.3-0.9C57.7,46.1,57.8,46.3,57.8,46.4L57.8,46.4z M57.1,44.4c0.6,0.4-0.1,0.3-0.2-0.2C57,44.1,57,44.3,57.1,44.4z
	 M63.1,42.8c0,0.4-2.7,1.2-2.9,1.2c-0.4,0-0.8-0.1-1.1-0.2c-0.7-1.4,0.7,0,0.9-0.6C60.2,43.2,63,42.3,63.1,42.8L63.1,42.8z
	 M49.1,43.4c0,0,0.1-0.1,0.1-0.1C49.3,43.2,49.2,43.3,49.1,43.4L49.1,43.4z M69.4,43.2c-0.2,0,0-1-0.2-1.1
	C69.4,42.4,69.4,42.7,69.4,43.2L69.4,43.2z M49.7,42.6c-0.1,0.2-0.2,0.5-0.5,0.6C49.4,43,49.6,42.8,49.7,42.6L49.7,42.6z M69.1,41.4
	L69.1,41.4C69.1,41.4,69.1,41.4,69.1,41.4L69.1,41.4z M66.8,41.2c1.3,0.6,1.4,3.9,0.3,3.4c-0.2-0.4,0.1-1.9-0.4-2.2
	c0,0.8,0.5,1.9,0.1,2.6c-0.2-0.3-0.3,0.5-0.4,0.5c0,0.3-0.8,0.9-1.1,0.9c0-0.7,1.1-1.4,0.8-2.2c0-0.5-0.1-0.9-0.3-1.4
	c0-0.2-1-2.3,0.1-1.4C66.1,41.4,66.4,40.3,66.8,41.2L66.8,41.2z M68.8,40.8C68.8,40.8,68.7,40.8,68.8,40.8
	C68.7,40.8,68.7,40.8,68.8,40.8L68.8,40.8z M51.2,41.6c-0.4,0.4-0.8,0.8-1.2,1.1C49.8,42.4,51.1,41.4,51.2,41.6L51.2,41.6z
	 M68.4,40.1c-0.1-0.1-0.1-0.1-0.1-0.2C68.4,39.9,68.4,40,68.4,40.1L68.4,40.1z M46.9,41.2c0,0-0.8,0.1-0.9,0.3c-0.3,0-0.9,0.8-1,1
	s1.7-1.2,2.4-0.6c0.7,0.3,0.5-0.3,0.5-0.6c0.1,0.1,1,0.4,1,0.5c-0.2,0.2-0.4,0.9,0,0.8l0,0c-0.7-0.2-1,0.5-1.8,0.3
	c-0.3,0.1-0.5,0.4-0.8,0.4c0.1-1-2.2,1.5-1.6-0.4c-0.3-0.1-0.4,0.4-0.6,0.4c-0.2-0.7,1.7-2.9,2.5-2.3C46.7,41,46.8,41.1,46.9,41.2
	L46.9,41.2z M68.2,39.7v-0.2C68.2,39.6,68.2,39.7,68.2,39.7L68.2,39.7z M47.6,41.1c-0.2-0.1-0.3-0.2-0.4-0.3
	C47.4,40.9,47.6,40.9,47.6,41.1z M51.3,40.5c0.1,0.3,0,0.2,0.3,0.2c-0.5,0.4-0.9,0.4-1.4,1C49.8,41.3,50.9,40.7,51.3,40.5z
	 M47.1,40.7L47.1,40.7L47.1,40.7z M57.8,39.2c0.1,0.7-0.1,1.4,0.5,2c0.1,0.2,0,0.6-0.2,0.6c-0.8,0-0.9-2-0.7-2.6
	c0.1-0.1,0.2-0.2,0.3-0.1C57.7,39.1,57.7,39.2,57.8,39.2z M56,38.3c0.4,0.2-1,0.3-1.1,0.4c-0.3,0-1.2,0.8-1.4,0.6
	C53.7,38.7,55.5,38.3,56,38.3L56,38.3z M61.7,37.8c0,0,0.2,0.4,0.2,0.6c0.1,0.2-0.1,2.2-0.4,1.8c0.1-0.2-0.2-0.1-0.1-0.3
	c0.4-0.6,0.4-1.4,0.1-2.1C61.4,37.7,61.7,37.7,61.7,37.8L61.7,37.8z M62.1,36.7c0,0,0.4,0.6,0.3,0.6c0.3,0.8,0.4,1.7,0.2,2.5
	c0,0-0.4,0.9-0.4,0.2c0-0.6,0.4-2.6-0.1-3C62,36.6,62.1,36.7,62.1,36.7L62.1,36.7z M60.7,36.5c0,0,0.2,0.4,0.2,0.5
	C60.8,36.9,60.6,35.9,60.7,36.5L60.7,36.5z M52.5,36.6c0.7,0,1.3,0,1.9,0.1c0.5,0.7,0.1,0.7-0.7,0.5c-0.2,0.4-0.1,0.4-0.7,0.2
	c-0.3-0.3-1.7-0.1-1.9-0.4C51,36.4,51.8,36.6,52.5,36.6L52.5,36.6z M67.6,38c0.1,0.1,0,0.3,0.1,0.4c-0.4-0.8-0.7-1.7-0.8-2.7
	C67.3,36.4,67.5,37.2,67.6,38L67.6,38z M66.2,35.7c0,0.5,0,0.9-0.1-0.2C66.2,35.6,66.1,35.7,66.2,35.7L66.2,35.7z M52.9,34.7
	c0.2,0,3.5,0.6,3.1,0.9c-0.3,0-3.6,0-3.6-0.1C52.2,35.2,52.2,34.3,52.9,34.7L52.9,34.7z M63.2,33.8c0.4,0.4,0.7,0.8,0.9,1.3
	c0.4,0.1,0.8,3.5,0.8,3.8c0.2,0,1,1.8,0.3,1.5c-0.2-0.1,0-0.4-0.3-0.4c-0.1-0.1-0.2-0.1-0.2-0.2c-0.2,0.5,0.2,0.8-0.6,0.3
	c-0.1,0.1,0.1,0.6-0.7,0.4c-0.2-0.2-0.7-0.5-0.6,0c0.1,0.2,0.3,0.1,0.4,0.2c0.3,1.3-0.8,0.4-1.1,0.4c-0.3,0.2-1.2-0.3-1.2,0
	c-0.4,0-2.3,2-2.2,1.3c0-0.4,0.5-0.6,0.7-0.9c-0.1-0.3,0.6-2.7,0.4-2.8c0-0.2-0.3-1.3-0.6-1.3c-0.2-0.2-0.5-0.2-0.8-0.4
	c-1.5,0.1,1-1.3,1.5,0.1c0,0.8,1.1,2.2,0.6,2.9c0.1,0.3-0.5,1.1,0.1,0.7c0-0.2,0.2-0.2,0.1-0.4c0.2-0.1,0.1-1.9,0.1-2.1
	c-0.4-0.6-0.6-1.3-0.8-2.1c0.1-0.2,1.3,0.2-0.1-0.7c0,0,0.1,0,0.1,0c0,0-0.2-0.3-0.4-0.3c-0.1,0-1-0.3-0.7-0.5
	c0-0.1,1.5-0.2,1.1,0.2c0.5,0.3,0.9,0.7,1.3,1.1c0.9,1.6-0.2,0.2,0.9,0.1c-0.3-1-0.6-0.9-1.4-1.5c0-0.7,1.7,0.1,1.8,0.6
	c-0.3-0.3-0.2,0.3,0,0.1c1,1,0.3,1.1,0.8,2c0,0.2,0.1,2.6,0.4,1.6c0.7,0.1-0.2-3-0.5-3.3c0-0.2-0.7-1.1-0.7-1.4
	C62.5,33.9,63,33.4,63.2,33.8L63.2,33.8z M54.6,32.8c0.2,0.1,0.4,0.2,0.5,0.2c0.5,0.3,0.8,0.8,0.8,1.3C55,34.6,53.1,32.9,54.6,32.8
	L54.6,32.8z M55.6,31.8c0.3,0.4,1,0.5,0.9,1.1c-0.6,0.5-2.6-1.5-2-1.5C54.8,31.4,55.2,31.6,55.6,31.8L55.6,31.8z M56.3,30.8
	c0.5,0,0.7,1,0.9,0.6c0.7,0,1.3,0.4,1.5,1.1c0.9,0.4,2.4-0.3,3.2,0.9c0.5-0.4,1,1.2,0.1,0.4c-1.1-0.3-2.3-0.4-3.5-0.4
	c-0.3,0.1-0.6,0.2-0.9,0.3c-0.6,0.1-0.1-0.6-0.5-0.9c0.1-0.7-1.6-1.9-1.1-2.1C56,30.8,56.2,30.7,56.3,30.8L56.3,30.8z M62,30.1
	c0.1,0.1,0.2,0.2,0.2,0.3c0.5-0.1,1.1,1.8,1.2,2.2c-1.4,0.2-1-0.7-1.7-1.6C61.8,30.6,60.9,30.1,62,30.1L62,30.1z M53.3,29.9
	c0,0.2,0.2,0.6-0.1,0.6c-0.5,0.4-0.9,0.8-1.3,1.3c-1.2,0.1-0.4,0.3-0.4,0.8c-0.3,0.1,0.2,0.8-0.9,0.5c-0.1,0.1,0,0.2,0,0.3
	c0,0.1-0.4,0.8-0.1,0.9c0.1,1.1-0.7,0.1-0.7,0.9c-0.2,0.1,0,0.4-0.2,0.4c-0.1,0.1-0.3,0.1-0.5,0.2c0.1,0.2-0.6,1-0.8,1.1
	c-2,0.2,0.1-1.4,0-1.6c0.5-0.2-0.2-1.3,0.2-1.4c1-0.2,1.1-1.8,1.4-1.9c0-0.2-0.1-0.5,0.1-0.5c0.2-0.1,2.1-0.6,1.9-1
	c0.3,0,0-0.3,0.2-0.4C52.5,30.1,52.6,29.9,53.3,29.9z M47.8,29.9c-0.1,0.1-0.1,0.2-0.1,0.3C47.5,30,47.6,29.9,47.8,29.9z M47.6,29.6
	c-0.1,0-0.1-0.2-0.1-0.3C47.5,29.4,47.6,29.5,47.6,29.6L47.6,29.6z M37,29.4c-0.1,0.5-1,0.7-0.3,0.2C36.8,29.5,36.8,29.3,37,29.4
	L37,29.4z M47.8,28.7c0.1,0.3-0.4,0-0.5-0.2L47.8,28.7z M37.9,29.2c-0.4,0.2-1.1,0.5,0.1-0.2C38,29.1,37.9,29.2,37.9,29.2L37.9,29.2
	z M38.2,28.9c0.2-0.1,0.4-0.2,0.5-0.3C38.6,28.8,38.4,28.9,38.2,28.9L38.2,28.9z M38.9,28.6L38.9,28.6z M55.6,27.1
	c0.2,0.3,1.5,0.4,1.8,1c0.6,0.4,1.2,0.8,1.7,1.3c0.5,0.5,0.3-0.2,0.5,0.7c-1.4,0.6-3.2-2.3-4.7-2.2c-0.3-0.1-0.7-0.3-0.5-0.7
	C54.5,26.9,55.3,27.2,55.6,27.1L55.6,27.1z M38.6,27.2c-0.3,0.2-0.5,0.4-0.8,0.6c-0.2,0.1-0.3,0.3-0.4,0.4c0.3-0.4,0.7-0.8,1.1-1.1
	C38.5,27.1,38.5,27.3,38.6,27.2L38.6,27.2z M39.7,25.9L39.7,25.9L39.7,25.9z M53.1,25.1c0.3,0.3,2.4,0.4,2.6,0.6
	c0.7,0.2,3.4,1.7,3,2.7c-0.8,0.3-1-0.5-1.6-0.8c-1.5-0.8-3.1-1-4.6-1.8c-0.2,0.2-1.8-0.6-0.7-0.9C52.4,24.8,52.7,25.1,53.1,25.1
	L53.1,25.1z M41.4,25.1l9.1-1.8c2.2,0.1,4.3,0.7,6.3,1.5c0.6,0.4,1.3,0.6,2,0.6c0,0.1,0.1,0,0.1,0.1s2.4,1.7,1.9,1.8
	c0,0.5,0.1,1,0.4,1.4c-0.5-0.1-0.1,0.8,0.2,0.4c0.2,0.3,0.4,0.6,0.5,0.9c0.7,0.3,0.6-0.7,0.4-1c0.8,0.9,1.3,1.9,2.1,2.8
	c0.3,0.3,1.4,2.2,1.1,2.5c0,0.8,0.2,0.4,0.5,0.9c-1-0.1-1.2-1.9-1.6-1.9c-1,0.3,0.2,0.9,0.1,1.4c0.2,0.2,0.4,1.1,0.7,1.1
	c0.9,0.3,1.5,3.1,1.2,3c-0.4-0.1-0.5,0.8-0.1,0.8c0.4,0,1.2,0.3,1.2-0.4c0.3,0.3,0.4,0.7,0.2,1.1c0.4,0.4,0.7,1,0.8,1.6
	c0.4,0.7-0.5,2.2,0.8,2c0,0.5-0.1,1.1-0.1,1.5c-0.7-1.2-0.6,0.1-1.1,0.4c-0.2,0-0.9,1.1-1.5,1.1c0.1-0.3-2.9,0.8-3.1,0.9
	c0.4-0.3,2.1-1.5,1.5-1.5c0-0.2,0.8-1.7,0.8-1.8c0.5-0.9,0.2-1.9-0.6-2.5c-1,0.2-0.3,0.5-0.1,1.1c0,1.4-0.4,3.3-1.7,3.9
	c-0.4,0.5-1,0.9-1.6,1.2c0.1,0,0.1,0.3,0.3,0.2c-0.1,0.2,1.6-0.3,1.8-0.2c0.2-0.1,1.4-0.1,1.5-0.4c0.2,0,0.5-0.3,0.7-0.3
	c-0.1,0-0.5,0.3,0.1,0.1c0,0,2.1-0.7,1.4-0.6c0.4-0.3,0.8-0.5,1.2-0.8c0.1,1.1-0.1,2.9,0.5,4c0.4,0.7-0.1,2,0.9,1.9
	c0.2-0.4,0,1.9-0.2,2.2c-0.4,1.2-1.2,2.2-2.2,2.9c-0.4,0.2-1.8,3.1-0.8,2.3c-0.3-1,1.9-1.9,1.7-2.4c0.2,0.1,0.1-0.3,0.3-0.2
	c0,0.3-0.2,0.5-0.1,0.6c0.5-0.2,1-0.6,1.3-1.1c0.8-1.3,0.8-3.5,1-5c0.8,0.9,0,4.5-0.7,5.1c-0.1,0.2-2,1.5-1.7,1.8
	c-0.2,0.2-0.4,0.7-0.2,1c1-0.1,0.7-0.7,1.4-1.2l0,0c1.1-0.1,1.4-2.5,1.8-2.5c0.5-0.7-0.1-1.7,0.3-2.4c0.6,0,0,3.3,0,4
	c0,1.6,0.7,2.5-1.3,3.5c-0.5,0.2-1,0.4-1.5,0.7c-0.3,0-2.9,0.2-2,0.8c0.3,0,1.9,0.1,2,0c0.5-0.1,0.9-0.3,1.4-0.5
	c-0.4,0.3-2.2,0.6-2.4,0.9c-0.1,1.2,2.2-0.2,2.8-0.2c-0.8,0.8-2.6,1.7-3.6,1.1c-1.1-0.6-2.5-0.5-3.6,0.2c-1.4-0.1-3.4-1.1-3.4-2.8
	c-0.4-0.5,0.3-3,0.7-3.4c0-0.2,0.2-0.3,0.2-0.5c0.4-0.5,2.3-3.9,1.1-3.8c0,1.4-1.8,3.1-2.4,4.4c-0.7,1.5-0.7,3.2,0,4.7
	c-0.5-0.3-1-2-1.3-2c-0.2-0.5-0.2-1.1-0.1-1.6c-0.1-1.7-0.2-5.4,1.3-6.8c0.1-0.1,0-0.2,0.1-0.3c0.3-0.4,0.5-0.5,0.4-1
	c-1.2-0.3-2.6,3.1-2.5,4c-0.1,0.2,0,0.8-0.1,1c-0.2-1.3-0.8-2.4-1.8-3.2c0,0,0.5-1.7,0.5-1.7c0.3-0.7,0.6-1.4,0.9-2.1
	c0.1-0.1,0.1,0,0.2,0c0.1,0,0.2-0.2,0.3-0.2c0.1,0,0.1,2.2,0.4,2.2s0.7,0.1,0.8-0.2c0.3,0.1,2.5-1,2.4-1.3c0.5-0.3,0.3-1.5,0.9-1.6
	c0.1-0.1,0.7-1.4,0.5-1.5c-0.7,0.3,0.4-0.6,0.4-0.7c2.4-1-0.1-1.3-0.5-0.6c-0.4,0.3-0.7,0.6-1,1c-0.6,0.2-0.5,0.2-0.7,0.8
	c0,0-1.5-0.1-1.6-0.4s-0.5-0.1-0.6,0.1c-0.2,0.6-0.7-0.3-0.4-0.9c-0.1-0.2,0-0.6-0.3-0.7c0-0.1-0.6-0.7-0.5-1
	c-0.4-0.2-1.9-0.9-1.8-1.4c-0.1,0,0.1,0,0.1-0.1c-0.2-0.2-0.6,0-0.6-0.4c-0.6-0.4-1.6,0.3-1.5-0.8c-0.1,0-0.4-0.1-0.4-0.2
	c0-0.1,0.9-0.6,0.9-0.9c0.3-0.2,1.6-0.7,2-0.5c1,0.5,0.7-0.8,0.4-0.9c0.1,0,0.3,0,0.3-0.1c0-0.4,0.6,0.1,0.9-0.2
	c0-1.1-2.1-0.8-2.7-0.5c-1,0.4-1.8,0.9-2.6,1.5c0,0.2,0,0.7-0.4,0.6c-0.6-0.2-2.1,1.3-2.5,1.7c0-0.1,0-0.2-0.1-0.3
	c-0.4-0.4-0.9-0.6-1.4-0.9c-0.3-0.3-1.3-1.2-0.4-1.3c0.1-0.1,0.1-0.3,0-0.4c0.1-0.1,0.7-0.3,0.1-0.7c0.3-0.8-1-0.8-0.9-0.6
	c-0.3,0.7-0.4,1.4-0.4,2.2c0.2,0.4,0.5,0.7,0.7,1.1c-0.1,0.1-1-0.5-1,0.2c-1.7,0.3,0.1-0.7-1-0.7c0.3,0,0-1.5-0.3-1.8
	c0.1-0.7-0.3-1.4-0.9-1.9c0.1-0.1,0.8-0.4,0.3-0.6c0-0.2,1.1-0.2,1.3-0.3c0.4,0.1,0.1-1.4,0.6-1.3c0.2-0.1,0.6,0.1,0.7-0.2
	c0-1.7,0.5-0.5,1-1.1c0.1-0.5,0.3-0.1,0.2-0.7l0.4-0.2c0-0.2-0.2-1.6,0.2-1.6c1,0-0.4-1.1,0.3-1c0-0.9,1.7,0.1,1.6-0.4
	c0.2,0.2,0.9-0.2,0-0.3c0-0.1,0.2,0,0.2-0.1c-0.3-0.3-3.1,0-3.4-0.5c1.1,0.2,2.1-0.2,3.1,0.3c0.7-0.2,2,0.6,2.8,0.3
	c0,0.6,2-0.5-1-1.1c-1,0.1-2.5-0.6-3.7-0.6c0-0.6,4.5,0.7,4.6,0.2c-0.2-1.8-4.6-1-5.6-0.9c-0.7,0.1-0.4,0.3-0.6,0.6
	c-0.9,0.1-1.9-0.2-2.9-0.1c-0.1-0.9-5.1,1.7-5.4,1.7c0.5-0.6,1.1-0.4,1-1.4c-0.3,0,0.6-0.4,0.7-0.4c0.2,0.6,1.1-1.6,1.3-1
	c-0.1,0,0,0.4,0,0.4c0.5,0,0.8-0.3,1.3-0.4c0.7-0.4,4.5-0.8,4.5-1c0.4-0.1,0.9,0.1,1.4-0.1c-0.1-1.3-5.5,0-6.8,0.5
	c-0.7-1.1,7.8-1.8,8.5-1.7L41.4,25.1z M52.2,50c-0.2,0.2,0,0.6,0,0.7c-0.5,0.1-0.6,0.1-0.9-0.2c-0.1-0.2-0.1-0.4-0.1-0.6
	c0-0.1,0.1-0.2,0.3-0.3c0.2-0.1,0.2-0.4,0.2-0.5c-0.2-0.3-0.3-0.7-0.2-1c0.2,0,0.7-0.2,0.6,0.1c0,0,0.1,0.1,0.1,0.1
	c0,0,0.2,0.1,0.4,0.1c0.1,0.2,0.2,0.4,0.2,0.6c0.2,0.1,0.1,0.4,0,0.6C52.5,49.6,52.3,49.8,52.2,50z M47.8,60.6
	c0.2-0.4,0.5-0.8,0.8-1.2c0.3-0.3,1.6-3.6,1.9-3.1C50.4,56.8,48.3,61.5,47.8,60.6L47.8,60.6z M35.3,53.3c0.5,0.6,0.9,1.4,1.1,2.2
	c0.4,1.3,0.6,3,0.2,3.7c0,0.1-0.4-2.6-0.7-3.7C35.7,54.8,35.5,54.1,35.3,53.3z M46.7,49.3c0,0,0.3,0.4,0,0.6
	c-0.6,0.3-1.2,0.6-1.8,0.9c-0.3,0.4,0.6,0.7,0.9,1.1c0.1,0.1,0.1,0.5-0.4,0.6c-0.3-0.7-1.1-1.2-1.9-1.1c0-0.1-0.1-0.4,0-0.5
	C44.5,50.3,45.6,49.7,46.7,49.3z M37.2,49.7c0.1,0.2,1.1,2.2,1.1,2.3s0.7-0.8,1-0.6c0.3,0.2-0.3,0.9-0.4,1.1s-0.1,0.5-0.1,0.8
	c0,0.2-0.2,0.3-0.3,0.3c-0.1,0-0.2-0.1-0.2-0.1c-0.2-0.4-0.4-0.8-0.5-1.3c-0.2-0.7-1-2.2-1-2.4C36.7,49.5,37.3,49.5,37.2,49.7z
	 M33.5,50.4c-0.2,0.3-0.3,0.1-0.4,0c-0.2-0.2-0.4-0.4-0.6-0.5c-0.3-0.1-0.7,0.3-0.6-0.2C32.3,49.3,33.3,49.8,33.5,50.4z M52.3,50
	c0.1-0.1,0.6,0.1,0.8-0.3c0.3-0.2,0.6-0.5,0.8-0.8c0-0.2,0.1-0.4,0.1-0.6c0.1,0,0.4-0.1,0.5,0.1c0.1,0.6-0.3,1.2-0.6,1.7
	c-0.4,0.5-1.1,0.7-1.7,0.4C52.3,50.3,52.3,50.1,52.3,50z M52.2,46.4C52.2,46.4,52.1,46.4,52.2,46.4l0,0.6c-0.1,0.1-0.5,0.1-0.5,0
	c-0.1-0.4-0.1-0.9,0-1.3H52C52.1,45.9,52.2,46.2,52.2,46.4z M55.2,47.1c-0.2,0-0.4,0.1-0.5,0c-0.1-0.4,0-0.6,0-0.9
	c0.1-0.9-0.5-1.7-1.4-1.8c0,0.5,0.1,1,0.3,1.4c0.3,0.5,0.4,1.1,0.3,1.7c-0.2,0-0.3,0.1-0.5,0c0-0.8-0.4-1.6-1-2.1
	c-0.2,0-0.4-0.1-0.6,0.1h-0.4c0-0.2,0-0.3,0-0.5c0.2-0.6,0.7-1.1,1.4-1.3C54,43.2,55.9,44.6,55.2,47.1L55.2,47.1z M34,43.3
	c0.1,0.1,0.2,0.4,0.4,0.3c0.2-0.1-0.1-0.4,0.1-0.4h0.3c0,0.1,0.1,0,0.1,0c0.2,0.2,0.5,0.2,0.7,0.4c0.2,0.1,0.4,0.2,0.6,0.2
	c0.2,0.1,0.4,0.3,0.7,0.4l0,0c0,0,0.2,0.2,0.3,0.2s0.6-0.1,0.8,0.2c0.1,0,0.2,0,0.3,0.1c0,0.2,0,0.3,0,0.5c-0.1,0-0.2-0.2-0.3-0.2
	c-0.3,0.1-0.7,0-1-0.2c-0.1-0.1-0.2-0.1-0.3-0.1V45l-0.6,0.1c0,0.6-0.8,0.2-1,0.6c0,0,0.1,0.3,0.1,0.3c0,0.1,0.5,0.2,0.1,0.7
	c-0.1,0.2-0.3,0.4,0,0.4v0.4c-0.2,0.1-0.3,0-0.5-0.1c-0.1,0-0.1-0.1-0.1-0.1c0-0.4,0-0.8,0-1.2c-0.1-0.3,0-0.1-0.2-0.3v-0.5
	c0.1,0,0.2-0.1,0.3-0.2c-0.1-0.2-0.2-0.5-0.1-0.7c-0.2-0.1-0.6,0-0.8-0.3c-0.2,0-0.3-0.3-0.4-0.5c-0.1-0.2-0.1-0.5-0.1-0.7
	C33.7,43,34.1,43,34,43.3z M59.3,63.2c-0.7-0.7-1.3-1.5-1.5-2.4c0.1-0.8-0.4-1.5-0.4-2.2c0-1.3-0.5-1.8-0.7-2.8
	c0-0.1-0.8-1.8-1.1-1.7c-0.5-0.3-0.9-0.7-1.3-1.1c-0.3,0.7-0.8,1.2-1.5,1.6c-1.1,0.9-2.6-0.5-2.7-1.6c0.1,0,0.5-0.4,0.5-0.1
	c0.8,1.6,1.4,1.5,2.3,0.9c0.4-0.4,0.7-0.8,0.9-1.3c0.3-0.4,0.4-0.8,0.6-1.1c1.3-1.9,1.8-4.1,1.4-6.3c-0.3-0.7-0.6-1.7-1.3-2
	c-1.1-0.5-2.4-0.1-3.1,0.8c-0.8,0.1-7.5,1.3-7.6,0.8c-0.2-1-0.3-2.1-0.4-3.2c0-1.3,1.7-1.8,0.7-2.8c-0.8-0.9-2.1-1.7-1.4-3.1
	c0,0,0.1,0,0.1-0.1c0.6,0,1.7-1.8,2.2-1.6c0.1-0.1-0.1-0.2,0-0.2c-0.1-0.5,0.9-0.7,0.8-1.3c0.2-0.7,1,0.1,1-1.1
	c1.3-1.1-0.1-2.7-0.8-3.3c-1.3-1.1-3.9-0.1-4.6,0c-0.7,0.1-0.5,0.5-1.6,1c-1.1,0.3-2.5,2.2-3.9,1.8c-2.1,3.3-3.6,6.9-4.2,10.8
	c0,0.3,0.3-0.3,0.2-0.3c0.2,0,0.4-0.1,0.5-0.2c0-0.4,0.4,0,0.5-0.3l0,0c0.3-0.2,0.6-0.1,0.8-0.1s0.7-0.2,0.8,0
	c0.1-0.1,0.3,0,0.4-0.1c0.1-0.1,0.1,0.1,0.2,0.2c0,0.1,0.1,0.1,0.1,0.1c0.1,0,0.1,0.1,0.1,0.2l0,0c0.1,0.2,0.4,0.2,0.6,0.2
	c-0.1,0.4,0.3,0.1,0.4,0.3c0.1,0.2,0.1,0.1,0.2,0.2c0.1,0.1,0,0.2,0,0.2c0.1,0.3,0.6,0.1,0.4,0.5c0,0.1-0.2,0.2-0.1,0.3
	s-0.3,0.1-0.4,0.1c-0.1,0-0.2-0.1-0.2-0.2c-0.3-0.1-0.5-0.2-0.7-0.3c-0.3,0-0.5-0.1-0.7-0.2c0-0.1-0.1,0-0.1-0.1S34.4,42,34.3,42
	c-0.1,0.2-0.3,0.1-0.5,0.1c-0.1,0-0.1-0.1-0.1-0.2c-0.1,0.1-0.2,0.4-0.4,0.3c-0.1,0.2-0.5,0.2-0.6,0.3c-0.1,0.2,0.3,0.4,0.3,0.7
	c0.1,0.6-0.8,0-1-0.1v0.6c0,0.1,0,0.2,0,0.4c0,0.3-0.1,0.6-0.3,0.8c-0.6,1.1-1.2,2.2-1.8,3.3s-1.2,2.5-1.2,2.7
	c-0.2,0.3-0.2,0.8,0.1,1.1c0.3,0.2,0.6,0.3,1,0.2c0.5-0.3,1.1-0.5,1.7-0.4c0.3,0,0.4,0.3,0.7,0.4c0.2,0.1,0.4,0.2,0.7,0.2
	c0.3-0.2,0.8-0.6,0.8-1c0.1-0.1,0.2-0.2,0.3-0.1c0.1,0.1,0.1,0.2,0.2,0.3c0.1,0.1-0.3,1-0.6,1c-0.6,0.5-1.4,0.6-2.1,0.3
	c-0.1,1.4-1.2,2-0.5,3.5c0.2,0.7,0.4,0.5,2,0.7c0.4,0.2,2.1,0.4,1.5,1c-0.2-0.1-0.9,0.1-1-0.1c-0.7,0-2.7-0.3-2.8,0.9
	c0,0.4,1,1.1,1.5,1.3c0.3,0.4,0.5,0.9,0.4,1.4c0,0.5-0.2,0.8-0.1,0.8c-0.2,0.8,0,1.6,0.5,2.2c0.8,1.3,2.5,1.7,3.8,0.9
	c0.1,0,0.1-0.1,0.2-0.1c0.4-0.1,1-0.8,1.5-0.5c0,0.5-0.5,0.6-0.8,0.9c0.3,0.5,0.9,1,1.5,1.2c0.5,0.2,1.1,0.2,1.6,0.2
	c1.2-0.4,2.4-1,3.5-1.7c0.3-0.1,0.5-0.6,0.9-0.3c-0.1,0.3-0.4,0.5-0.7,0.7c-1.1,0.9-2.4,1.5-3.8,1.8c-0.1,0-0.1,0.2-0.1,0.3
	c-0.3,1.5-0.9,7.8-0.2,8c4.6-4.1,9.7-7.6,15.3-10.3c1.4-0.8,2.9-1.5,4.5-2.1C60.2,63.7,59.4,63.6,59.3,63.2z M60.1,64.3
	c-2.3,0.9-4.5,2-6.5,3.4c-3.6,2.2-7.8,4.5-10.9,7.3c-0.1-0.1-1.9,2.3-2.6,1.9c-1.3-0.8-0.4-7.1,0-9c-0.3,0-0.9,0.1-1.4-0.3
	c-0.7-0.3-1.2-0.8-1.5-1.4c-0.8,0.4-1.7,0.6-2.6,0.5c-1.9-0.4-3.2-2.2-2.8-4.2c0,0,0,0,0,0c0.2-0.8,0.2-1.4-1.2-2.2
	c-1.9-1.1-0.1-2.6,0.2-2.8c0-0.1-0.4-0.3-0.5-0.9c-0.1-0.7-0.1-1.3,0.1-2c0.2-0.5,0.4-1.1,0.5-1.7c0.1-0.3-1.9,0.4-2.3-0.1
	c-0.4-0.3-0.6-0.8-0.6-1.3c0.6-2.2,2.6-5,3.6-7.2c0.1-0.3,0.3-0.3,0-0.8c-0.2,0-0.5,0.1-0.6-0.2c-0.1-0.3-0.4,0-0.4-0.4
	c-0.1,0-0.3-0.1-0.2-0.5c-0.1-0.3,0-0.7,0.2-1c0.1-0.1-0.1,0.4,0,0.4c0-0.3,0.2-0.5,0.4-0.7c-0.1,0.1-0.1,0.3-0.1,0.4
	c0-0.1,0.1-0.5,0.4-0.4c0.7-3.8,2.1-7.5,4.2-10.8c0.1-0.3,0.2-0.7,0.3-1c0.2-0.2,0.3-0.5,0.4-0.7c1.1-1.7,2.7-3,4.6-3.7
	c1.6-0.9,3.4-1.5,5.3-1.7c2.5-0.5,5.1-0.4,7.7,0.1c0.2,0.1,5.2,1.6,5.4,1.8c1.2,0.7,2.3,1.5,3.2,2.6c0.2,0.2,0.9,1.2,1.5,2
	c0.6,0.9,1.1,1.7,1.1,1.7s1.2,1.5,1.1,1.8c1.1,1.2,1.8,2.6,2.1,4.2c0.1,0.6,0,1.4,0.6,1.8c0.2,0.3,0.8,1.1,1.2,1.8
	c0.3,0.4,0.2,2.5,0.4,2.6c0,1.3,1.3,1.9,1.4,3.5c0.5,1.7-0.5,2.2,0.1,3.4c0.8,2.2,1.5,3.8,1.3,4.5c-0.2,0.8-0.3,1.7-0.4,2.5
	c-0.2,0.5,0.3,1.4,0.1,2.2c0.1,0.9,0.1,1.7-0.5,2.1c-0.2,0.6-0.9,2-1.6,2.2c-2.8,1.7-5-0.1-5.4,0.2c-1.9,1.3-3,0.5-4.5-0.2
	C61.1,64,60.2,64.3,60.1,64.3z"/>
<path class="st2" d="M46.9,16.2C65.7,14.9,82,29.1,83.3,47.9S70.5,83,51.7,84.3c-18.8,1.3-35.1-12.9-36.4-31.7
	C14,33.9,28.1,17.6,46.9,16.2z M46.6,12C67.7,10.6,86,26.5,87.5,47.6S73,87,51.9,88.5C30.8,89.9,12.5,74,11,52.9
	C9.5,31.8,25.5,13.5,46.6,12z"/>
</svg>
