<svg id="Ebene_1" data-name="Ebene 1" xmlns="http://www.w3.org/2000/svg" viewBox="0 0 98.54 98.57"><defs><style>.cls-1{fill:#fff;}</style></defs><path class="cls-1" d="M56,98.48C56,87,56,75.67,56,64.35a2.71,2.71,0,0,1,.14-.62,24.25,24.25,0,0,1,3.8-.12c1.26,0,2.53,0,3.79,0a23.41,23.41,0,0,0,3.75-.1c.43-1.16,2.2-12.58,2.26-14.55a29.88,29.88,0,0,0-4.54-.12c-1.47,0-2.94,0-4.42,0s-3,0-4.63,0a5.63,5.63,0,0,1-.16-1c0-3.06,0-6.11,0-9.17a7.65,7.65,0,0,1,.24-2,6,6,0,0,1,5.68-4.47c2.37-.08,4.74,0,7.11,0,.57,0,1.14,0,1.8,0a4.5,4.5,0,0,0,.15-.79V18.63a6.23,6.23,0,0,0-.11-.68c-.46,0-.86-.08-1.27-.08H58.24A18,18,0,0,0,40.74,32.2a20.5,20.5,0,0,0-.4,4.07c-.05,3.63,0,7.27,0,10.9,0,.52,0,1-.06,1.63-.49.05-.89.11-1.3.11H29.33c-.52,0-1,0-1.44,0-.15.13-.2.16-.22.2a.27.27,0,0,0-.05.15l-.06,13.42a5.18,5.18,0,0,0,.09.78s.07.08.22.24c1.24.08,2.6,0,3.95,0H40.1a8.5,8.5,0,0,1,.21.93c0,.32,0,.63,0,1v31c0,.57,0,1.14,0,1.79a8,8,0,0,1-1,.12c-4.69,0-9.38.06-14.07,0A25.61,25.61,0,0,1,.42,77.16,34.45,34.45,0,0,1,0,72C0,56.87,0,41.76,0,26.64A26.24,26.24,0,0,1,2.38,15,25.44,25.44,0,0,1,21.72.34,24.08,24.08,0,0,1,26,0Q49.35,0,72.73,0A25.78,25.78,0,0,1,98,20.31a23.52,23.52,0,0,1,.53,5V73.19A25.66,25.66,0,0,1,78.42,97.93a24.54,24.54,0,0,1-5.32.62H57.3C56.94,98.54,56.58,98.51,56,98.48Z"/></svg>