<svg id="Ebene_1" data-name="Ebene 1" xmlns="http://www.w3.org/2000/svg" viewBox="0 0 98.59 98.56"><defs><style>.cls-1{fill:#fff;}.cls-2{fill:#00a4b7;}</style></defs><path class="cls-1" d="M49.23,98.56c-8.11,0-16.22,0-24.33,0A24.6,24.6,0,0,1,.4,78.3,22.29,22.29,0,0,1,0,74.06Q0,49.34,0,24.62A24.53,24.53,0,0,1,20.39.39,23.46,23.46,0,0,1,24.48,0C41,0,57.55,0,74.09,0A24.5,24.5,0,0,1,98.18,20.21a24.87,24.87,0,0,1,.38,4.39q0,24.72,0,49.44A24.52,24.52,0,0,1,78.74,98.11a26.57,26.57,0,0,1-5.34.45Q61.31,98.54,49.23,98.56Zm.08-13h16.9a20.26,20.26,0,0,0,4.85-.53A18.89,18.89,0,0,0,85.61,66.72c.06-11.63,0-23.26,0-34.89a17.86,17.86,0,0,0-.55-4.37A19,19,0,0,0,66.65,13q-17.37,0-34.75,0a19.78,19.78,0,0,0-3.6.35A19,19,0,0,0,13,31.86c0,11.63-.06,23.27,0,34.9a18.34,18.34,0,0,0,7.62,15.07A18.39,18.39,0,0,0,32.09,85.6Z"/><path class="cls-2" d="M49.31,85.6H32.09a18.39,18.39,0,0,1-11.48-3.77A18.34,18.34,0,0,1,13,66.76c-.08-11.63-.05-23.27,0-34.9A19,19,0,0,1,28.3,13.33,19.78,19.78,0,0,1,31.9,13q17.39,0,34.75,0A19,19,0,0,1,85.07,27.46a17.86,17.86,0,0,1,.55,4.37c0,11.63,0,23.26,0,34.89A18.89,18.89,0,0,1,71.06,85.08a20.26,20.26,0,0,1-4.85.53Zm0-6.25H65.09l2,0A12.63,12.63,0,0,0,79,69.35a17.23,17.23,0,0,0,.32-3.29q0-16.81,0-33.62c0-.32,0-.64,0-.95a12.68,12.68,0,0,0-12.6-12.25c-11.63,0-23.27-.08-34.9,0-5.4,0-9.25,2.79-11.56,7.65a12.72,12.72,0,0,0-1.06,5.53q0,16.81,0,33.63v.63A12.64,12.64,0,0,0,29.27,79a19.61,19.61,0,0,0,3.76.31C38.45,79.37,43.87,79.35,49.3,79.35Z"/><path class="cls-1" d="M49.3,79.35c-5.43,0-10.85,0-16.27,0A19.61,19.61,0,0,1,29.27,79a12.64,12.64,0,0,1-10-12.33v-.63q0-16.81,0-33.63a12.72,12.72,0,0,1,1.06-5.53c2.31-4.86,6.16-7.6,11.56-7.65,11.63-.1,23.27-.05,34.9,0a12.68,12.68,0,0,1,12.6,12.25c0,.31,0,.63,0,.95q0,16.8,0,33.62A17.23,17.23,0,0,1,79,69.35a12.63,12.63,0,0,1-11.89,10l-2,0Zm0-11.41A18.66,18.66,0,1,0,30.63,49.26,18.68,18.68,0,0,0,49.3,67.94Zm23.45-38.1a4.26,4.26,0,0,0-4.25-4.33,4.34,4.34,0,0,0-4.34,4.26,4.29,4.29,0,0,0,4.27,4.33A4.25,4.25,0,0,0,72.75,29.84Z"/><path class="cls-2" d="M49.3,67.94A18.66,18.66,0,1,1,68,49.25,18.65,18.65,0,0,1,49.3,67.94ZM61.7,49.29A12.42,12.42,0,1,0,49.38,61.7,12.46,12.46,0,0,0,61.7,49.29Z"/><path class="cls-2" d="M72.75,29.84a4.25,4.25,0,0,1-4.32,4.26,4.29,4.29,0,0,1-4.27-4.33,4.34,4.34,0,0,1,4.34-4.26A4.26,4.26,0,0,1,72.75,29.84Z"/><path class="cls-1" d="M61.7,49.29a12.42,12.42,0,0,1-24.83,0,12.42,12.42,0,1,1,24.83,0Z"/></svg>