<svg id="Ebene_1" data-name="Ebene 1" xmlns="http://www.w3.org/2000/svg" viewBox="0 0 98.58 98.57"><defs><style>.cls-1{fill:#fff;}.cls-2{fill:#00a4b7;}</style></defs><path class="cls-1" d="M0,49.25c0-7.69,0-15.38,0-23.06A25.45,25.45,0,0,1,2.67,14.44,25.43,25.43,0,0,1,21.57.38,22.43,22.43,0,0,1,25.66,0c15.8,0,31.6-.07,47.4,0A25.53,25.53,0,0,1,98.57,25.81c0,15.69,0,31.38,0,47.07A25.64,25.64,0,0,1,72.8,98.57H25.72a25.76,25.76,0,0,1-25-19.83A29.14,29.14,0,0,1,0,72.15Q0,60.7,0,49.25Z"/><path class="cls-2" d="M83.43,50.82a4.07,4.07,0,0,0-3.14.9S52,84.14,51.67,84.59a.56.56,0,0,1-.74.21l-24.12-7s-3.52-.61-4.75-1.49-2.76-2.54-2.64-6.21,2.13-4.8,3-5.1c7.93,2.41,24.47,7.42,27,8a5.2,5.2,0,0,0,5.06-1.28L77.73,43.55C79.1,42,80,40.93,80.12,40.75a6.08,6.08,0,0,0,.45-.63l3.33-4s.28-1.43-1.48-1.76a4.05,4.05,0,0,0-3.14.9l-1.1,1.26c-5.21,6-27.25,31.22-27.52,31.61a.57.57,0,0,1-.74.22l-24.12-7s-3.53-.6-4.75-1.48a6,6,0,0,1-1.65-1.76,7.76,7.76,0,0,1-1-4.45c.11-3.66,2.23-4.87,3-5.13a2.26,2.26,0,0,1,1.47,0L27,49.67c6.67,1.91,19.44,5.55,21.65,6,3,.65,3.8-.65,3.8-.65L70.18,34.62c4.73-5.45,8.63-10,8.93-10.35a2.94,2.94,0,0,0,.79-2.5c0-1.25-1.58-1.48-1.58-1.48S49.55,13.52,46.72,13s-3.06.33-3.06.33l-23.14,26c-5.08,4.94-6.19,9.18-6.19,9.18-1.81,8.19.36,12.17,2.1,14A12.62,12.62,0,0,0,15.35,65c-2.78,12.58,3.82,15.22,3.82,15.22s27.88,8.53,31.22,9.27a5.19,5.19,0,0,0,5.06-1.28L84.91,52.58S85.19,51.15,83.43,50.82Z"/></svg>