<svg id="Ebene_1" data-name="Ebene 1" xmlns="http://www.w3.org/2000/svg" viewBox="0 0 98.58 98.57"><defs><style>.cls-1{fill:#fff;}.cls-2{fill:#00a4b7;}</style></defs><path class="cls-1" d="M0,49.25c0-7.69,0-15.38,0-23.06A25.45,25.45,0,0,1,2.67,14.44,25.43,25.43,0,0,1,21.57.38,22.43,22.43,0,0,1,25.66,0c15.8,0,31.6-.07,47.4,0A25.53,25.53,0,0,1,98.57,25.81c0,15.69,0,31.38,0,47.07A25.64,25.64,0,0,1,72.8,98.57H25.72a25.76,25.76,0,0,1-25-19.83A29.14,29.14,0,0,1,0,72.15Q0,60.7,0,49.25ZM49.27,72c5.58,0,11.16,0,16.74,0a21,21,0,0,0,3.45-.29A14,14,0,0,0,80.87,59.24c0-.53.1-1.05.1-1.58,0-5.58,0-11.15,0-16.73a13.89,13.89,0,0,0-6.55-12.09,14.25,14.25,0,0,0-8.09-2.25H32.37c-.26,0-.53,0-.79,0A14.27,14.27,0,0,0,17.63,41.17c0,5.21,0,10.42,0,15.63,0,.53,0,1.06,0,1.58A14.27,14.27,0,0,0,32.22,72C37.91,72,43.59,72,49.27,72Z"/><path class="cls-2" d="M49.27,72c-5.68,0-11.36,0-17.05,0A14.27,14.27,0,0,1,17.65,58.38c0-.52,0-1.05,0-1.58,0-5.21,0-10.42,0-15.63a14.27,14.27,0,0,1,14-14.57c.26,0,.53,0,.79,0H66.32a14.25,14.25,0,0,1,8.09,2.25A13.89,13.89,0,0,1,81,40.93c0,5.58,0,11.15,0,16.73,0,.53,0,1.05-.1,1.58A14,14,0,0,1,69.46,71.7,21,21,0,0,1,66,72C60.43,72,54.85,72,49.27,72Zm-6.6-32.82v20a.21.21,0,0,0,0,.15s.09,0,.23.12a5.28,5.28,0,0,0,.62-.28l15.51-9.39c.19-.12.51-.2.44-.55-.75-.58-15-9.32-16.25-9.95A2.53,2.53,0,0,0,42.67,39.18Z"/><path class="cls-1" d="M42.67,39.18a2.53,2.53,0,0,1,.6.09c1.25.63,15.5,9.37,16.25,9.95.07.35-.25.43-.44.55L43.57,59.16a5.28,5.28,0,0,1-.62.28c-.14-.07-.2-.08-.23-.12a.21.21,0,0,1,0-.15Z"/></svg>