<svg id="Ebene_1" data-name="Ebene 1" xmlns="http://www.w3.org/2000/svg" viewBox="0 0 98.58 98.57"><defs><style>.cls-1{fill:#fff;}.cls-2{fill:#00a4b7;}</style></defs><path class="cls-1" d="M0,49.25c0-7.69,0-15.38,0-23.06A25.45,25.45,0,0,1,2.67,14.44,25.43,25.43,0,0,1,21.57.38,22.43,22.43,0,0,1,25.66,0c15.8,0,31.6-.07,47.4,0A25.53,25.53,0,0,1,98.57,25.81c0,15.69,0,31.38,0,47.07A25.64,25.64,0,0,1,72.8,98.57H25.72a25.76,25.76,0,0,1-25-19.83A29.14,29.14,0,0,1,0,72.15Q0,60.7,0,49.25Z"/><path class="cls-2" d="M22,72.27a35.39,35.39,0,0,0-4.6.27l-2.1.31V25.4a24.51,24.51,0,0,0-3.91.28V78.32s20.87-3.69,33.76,3C38.49,73.51,28,72.27,22,72.27Z"/><path class="cls-2" d="M83.29,25.4V72.86l-2.1-.32a35.39,35.39,0,0,0-4.6-.27c-6,0-16.5,1.24-23.15,9,12.89-6.69,33.76-3,33.76-3V25.68A24.51,24.51,0,0,0,83.29,25.4Z"/><path class="cls-2" d="M17.12,19.61V70.73s21.43-3.22,31.26,11.88l.19.29V30.73C46,27.5,36.29,17.48,17.12,19.61Z"/><path class="cls-2" d="M81.46,70.73V19.61C62.28,17.48,52.6,27.5,50,30.73V82.9l.19-.29C60,67.51,81.46,70.73,81.46,70.73Z"/></svg>