<svg id="Ebene_1" data-name="Ebene 1" xmlns="http://www.w3.org/2000/svg" viewBox="0 0 1042.4 73.35"><defs><style>.cls-1{fill:#68c3cc;}.cls-2{fill:none;stroke:#68c3cc;stroke-miterlimit:22.93;}.cls-3{fill:#79b829;}</style></defs><path class="cls-1" d="M95.8,43.61"/><path class="cls-1" d="M95.8,27.38"/><path class="cls-1" d="M104.31,37.67a5.09,5.09,0,0,1-2.53,4.62A12.51,12.51,0,0,1,95,43.87c-.8,0-2.39,0-4.66-.13.14-3.17.27-6.73.27-10.55s-.13-6.87-.27-9.5h1.87a14.79,14.79,0,0,0,2.12-.14c1.07,0,1.87-.13,2.4-.13,4.25,0,6.38,1.45,6.38,4.49a4.62,4.62,0,0,1-3.06,4.62v.13C102.84,33.32,104.31,35,104.31,37.67ZM100.45,29q0-3.16-4.39-3.16a21.75,21.75,0,0,0-3.45.26c.13.79.13,2.77.13,6.33h1.59a11.62,11.62,0,0,0,4.39-.66A3,3,0,0,0,100.45,29Zm1.2,9.11c0-2.51-2.26-3.83-6.78-3.83a10.32,10.32,0,0,0-2.13.13c0,2.77.13,5.15.13,7.39a8.45,8.45,0,0,0,2.13.13c2.53,0,4.25-.26,5.32-.92A3.38,3.38,0,0,0,101.65,38.07Z"/><path class="cls-1" d="M121.46,43.87h-2.92a29.66,29.66,0,0,0-2-4.88,3.24,3.24,0,0,0-1.46-1.71,6.45,6.45,0,0,0-2.66-.4h-2c0,2.64.14,4.88.14,6.86h-2.79c.13-2.64.26-5.54.26-8.58s-.13-5.54-.26-7.78h2a7.25,7.25,0,0,0,1.6-.13c.53,0,1.33-.13,2.12-.13,4,0,6,1.32,6,3.82,0,2.11-1.07,3.57-3.33,4.49v.13a4.56,4.56,0,0,1,2.4,1.85C119.2,38.6,120.13,40.71,121.46,43.87Zm-4.39-11.74c0-2-1.46-2.9-4.12-2.9-.93,0-1.86.13-2.53.13.14,1.45.14,3.3.14,5.8H112C115.35,35.16,117.07,34.11,117.07,32.13Z"/><path class="cls-1" d="M138.35,27.38c-.13,3.17-.13,5.81-.13,8.31,0,5.68-2.4,8.45-7.18,8.45-2.26,0-4.13-.53-5.32-1.85S124,38.86,124,35.43c0-2.24-.13-5-.13-8h2.79c-.13,3.17-.13,5.67-.13,7.65,0,2.64.39,4.62,1.06,5.68A3.82,3.82,0,0,0,131,42.29a4.54,4.54,0,0,0,3.59-1.45c.8-.93,1.06-2.9,1.06-5.81,0-2-.13-4.48-.13-7.65Z"/><path class="cls-1" d="M156,43.87h-2.26c0-.13-1.47-2.11-4.39-5.93a78.2,78.2,0,0,1-5.19-7.52h-.13c.13,2,.27,3.69.27,5.14,0,2.64.13,5.41.13,8.31h-2.53c.13-2.64.27-5.54.27-8.57s-.14-5.54-.27-7.79h2.93c0,.27,1.33,2.11,4,5.68s4.39,6.07,4.65,7.25h.13c-.13-2-.26-3.69-.26-5.14,0-2.91-.13-5.54-.27-7.66h2.79c-.13,2.25-.26,4.89-.26,7.79C155.9,38.33,155.9,41.1,156,43.87Z"/><path class="cls-1" d="M176,35.43a8.33,8.33,0,0,1-2.66,6.46,8.72,8.72,0,0,1-6,2.51,8.44,8.44,0,0,1-5.72-2.24,7.82,7.82,0,0,1-2.52-6.07,8.13,8.13,0,0,1,2.66-6.47,8.72,8.72,0,0,1,6-2.5,8.44,8.44,0,0,1,5.72,2.24A7.39,7.39,0,0,1,176,35.43Zm-2.66.26a6.49,6.49,0,0,0-1.73-4.88,5.55,5.55,0,0,0-4.13-1.71,4.87,4.87,0,0,0-3.85,1.84,7,7,0,0,0-1.6,4.88,6.46,6.46,0,0,0,1.73,4.89,5.58,5.58,0,0,0,4.12,1.71,4.9,4.9,0,0,0,3.86-1.85A8.23,8.23,0,0,0,173.33,35.69Z"/><path class="cls-1" d="M200.19,43.48a17.11,17.11,0,0,1-5.06.79c-3.59,0-6.38-.92-8.11-2.9a10.81,10.81,0,0,1,.14-14.65,10.85,10.85,0,0,1,8.24-3.17,17.11,17.11,0,0,1,3.72.4l-.39,2.51a18.24,18.24,0,0,0-4.13-.53,7.35,7.35,0,0,0-5.72,2.24,7.88,7.88,0,0,0-2,5.54,8.38,8.38,0,0,0,2.26,5.81A8.08,8.08,0,0,0,195.53,42a20.5,20.5,0,0,0,2.26-.27,28.76,28.76,0,0,1-.26-3.69,26.22,26.22,0,0,0-.27-3.43h2.79c-.13,1.32-.13,2.77-.13,4.35C200.06,39.65,200.06,41.1,200.19,43.48Z"/><path class="cls-1" d="M217.87,43.87H215A28.78,28.78,0,0,0,213,39a3.19,3.19,0,0,0-1.46-1.71,6.45,6.45,0,0,0-2.66-.4h-2c0,2.64.13,4.88.13,6.86h-2.79c.13-2.64.26-5.54.26-8.58s-.13-5.54-.26-7.78h2a7.21,7.21,0,0,0,1.6-.13c.53,0,1.33-.13,2.13-.13,4,0,6,1.32,6,3.82,0,2.11-1.06,3.57-3.32,4.49v.13A4.54,4.54,0,0,1,215,37.41C215.61,38.6,216.54,40.71,217.87,43.87Zm-4.38-11.74c0-2-1.47-2.9-4.13-2.9-.93,0-1.86.13-2.52.13.13,1.45.13,3.3.13,5.8h1.46C211.76,35.16,213.49,34.11,213.49,32.13Z"/><path class="cls-1" d="M236.09,35.43a8.29,8.29,0,0,1-2.66,6.46,8.7,8.7,0,0,1-6,2.51,8.44,8.44,0,0,1-5.72-2.24,7.83,7.83,0,0,1-2.53-6.07,8.16,8.16,0,0,1,2.66-6.47,8.76,8.76,0,0,1,6-2.5,8.44,8.44,0,0,1,5.72,2.24A7.38,7.38,0,0,1,236.09,35.43Zm-2.66.26a6.46,6.46,0,0,0-1.73-4.88,5.51,5.51,0,0,0-4.12-1.71,4.87,4.87,0,0,0-3.85,1.84,7,7,0,0,0-1.6,4.88,6.46,6.46,0,0,0,1.73,4.89A5.58,5.58,0,0,0,228,42.42a4.92,4.92,0,0,0,3.86-1.85A6.8,6.8,0,0,0,233.43,35.69Zm-6.78-12.27a2.47,2.47,0,0,1-.4,1.32,1.53,1.53,0,0,1-1.33.53,1.37,1.37,0,0,1-1.46-1.45,2.1,2.1,0,0,1,.4-1.19,1.53,1.53,0,0,1,1.33-.53,1.47,1.47,0,0,1,1.06.4A1,1,0,0,1,226.65,23.42Zm5.85,0a2.47,2.47,0,0,1-.4,1.32,1.52,1.52,0,0,1-1.33.53,1.51,1.51,0,0,1-1.06-.4,1.47,1.47,0,0,1-.4-1.05,2.1,2.1,0,0,1,.4-1.19A1.55,1.55,0,0,1,231,22.1a1.47,1.47,0,0,1,1.06.4A1,1,0,0,1,232.5,23.42Z"/><path class="cls-1" d="M253.12,43.87h-2.27q0-.19-4.38-5.93a78.2,78.2,0,0,1-5.19-7.52h-.13c.13,2,.26,3.69.26,5.14,0,2.64.14,5.41.14,8.31H239c.13-2.64.26-5.54.26-8.57s-.13-5.54-.26-7.79h2.92c0,.27,1.33,2.11,4,5.68s4.39,6.07,4.66,7.25h.13c-.13-2-.26-3.69-.26-5.14,0-2.91-.14-5.54-.27-7.66h2.53c-.14,2.25-.27,4.89-.27,7.79A63.19,63.19,0,0,1,253.12,43.87Z"/><path class="cls-1" d="M260.16,43.87h-2.79c.13-2.64.27-5.54.27-8.57s-.14-5.68-.27-7.79h2.79c-.13,2.25-.13,4.88-.13,7.79S260,41.1,260.16,43.87Z"/><path class="cls-1" d="M278.12,43.87h-2.26c0-.13-1.47-2.11-4.39-5.93a78.2,78.2,0,0,1-5.19-7.52h-.13c.13,2,.26,3.69.26,5.14,0,2.64.14,5.41.14,8.31H264c.13-2.64.27-5.54.27-8.57s-.14-5.54-.27-7.79H267c0,.27,1.33,2.11,4,5.68s4.39,6.07,4.66,7.25h.13c-.13-2-.26-3.69-.26-5.14,0-2.91-.14-5.54-.27-7.66h2.53c-.14,2.25-.27,4.89-.27,7.79C277.85,38.33,277.85,41.1,278.12,43.87Z"/><path class="cls-1" d="M295.54,43.48a20.31,20.31,0,0,1-4.79.66c-3.19,0-5.45-.79-7.05-2.38a7.94,7.94,0,0,1-2.39-5.8,8.75,8.75,0,0,1,2.66-6.2c1.73-1.85,4.12-2.64,7.18-2.64a13.36,13.36,0,0,1,3.46.39l-.4,2.25a15.42,15.42,0,0,0-3.73-.53,6.21,6.21,0,0,0-4.92,1.84A6.42,6.42,0,0,0,284,35.56a6.16,6.16,0,0,0,2,4.62,7,7,0,0,0,5.19,2c.53,0,1.19-.13,2-.13a20.18,20.18,0,0,1-.26-2.91,21.87,21.87,0,0,0-.27-2.9h2.79a33.88,33.88,0,0,0-.13,3.69C295.4,40.44,295.4,41.63,295.54,43.48Z"/><path class="cls-1" d="M317.08,23.82,317,26.06c-2.8-.13-5.85-.13-9.31-.13.13,1.71.13,4.09.13,7,2.39,0,4.79-.13,7.05-.13V35c-2.13-.13-4.52-.13-7.05-.13,0,4,.13,7,.13,8.84h-2.79c.13-3.17.27-6.73.27-10.55s-.14-6.86-.27-9.5C305.11,23.82,317.08,23.82,317.08,23.82Z"/><path class="cls-1" d="M333.44,43.87h-2.93a29.86,29.86,0,0,0-2-4.88,3.21,3.21,0,0,0-1.47-1.71,6.45,6.45,0,0,0-2.66-.4h-2c0,2.64.13,4.88.13,6.86h-2.79c.13-2.64.27-5.54.27-8.58s-.14-5.54-.27-7.78h2a7.21,7.21,0,0,0,1.6-.13c.53,0,1.33-.13,2.13-.13,4,0,6,1.32,6,3.82,0,2.11-1.06,3.57-3.32,4.49v.13a4.5,4.5,0,0,1,2.39,1.85C331.18,38.6,332.11,40.71,333.44,43.87Zm-4.39-11.74c0-2-1.46-2.9-4.12-2.9-.94,0-1.87.13-2.53.13.13,1.45.13,3.3.13,5.8H324C327.32,35.16,329.05,34.11,329.05,32.13Z"/><path class="cls-1" d="M346.87,41.76l-.14,2.11H335.56c.14-2.64.27-5.54.27-8.57s-.13-5.54-.27-7.79h10.38l-.14,2.11c-2.52-.13-5.18-.13-7.84-.13.13,1.32.13,2.9.13,5,2.26,0,4.39-.14,6.38-.14l-.13,2.11c-2-.13-4.12-.13-6.38-.13,0,2.11.13,4,.13,5.81C341.42,41.89,344.21,41.89,346.87,41.76Z"/><path class="cls-1" d="M364.16,27.38c-.14,3.17-.14,5.81-.14,8.31,0,5.68-2.39,8.45-7.18,8.45-2.26,0-4.12-.53-5.32-1.85s-1.73-3.43-1.73-6.86c0-2.24-.13-5-.13-8h2.79c-.13,3.17-.13,5.67-.13,7.65a11.63,11.63,0,0,0,1.06,5.68,4,4,0,0,0,3.46,1.58,4.53,4.53,0,0,0,3.59-1.45c.8-.93,1.07-2.9,1.07-5.81,0-2-.14-4.48-.14-7.65Z"/><path class="cls-1" d="M381.84,43.87h-2.26q0-.19-4.39-5.93A79.3,79.3,0,0,1,370,30.42h-.14c.14,2,.27,3.69.27,5.14,0,2.64.13,5.41.13,8.31h-2.52c.13-2.64.26-5.54.26-8.57s-.13-5.54-.26-7.79h2.92c0,.27,1.33,2.11,4,5.68s4.39,6.07,4.66,7.25h.13c-.13-2-.27-3.69-.27-5.14,0-2.91-.13-5.54-.26-7.66h2.52c-.13,2.25-.26,4.89-.26,7.79A61.53,61.53,0,0,1,381.84,43.87Z"/><path class="cls-1" d="M400.06,35a9,9,0,0,1-2.53,6.34A8.84,8.84,0,0,1,390.75,44c-1.06,0-2.66-.13-4.92-.13.13-2.64.27-5.54.27-8.57s-.14-5.54-.27-7.79h1.73a7.86,7.86,0,0,0,1.6-.13c.79,0,1.33-.13,1.72-.13,3.06,0,5.32.79,6.79,2.24A6.91,6.91,0,0,1,400.06,35Zm-2.53.53a6.18,6.18,0,0,0-1.72-4.49c-1.2-1.31-3.06-1.84-5.46-1.84-.53,0-1.06.13-1.73.13.14,2,.14,3.83.14,5.8,0,2.25.13,4.49.13,6.73a11.09,11.09,0,0,0,2.13.27,6.16,6.16,0,0,0,5.05-2A8.29,8.29,0,0,0,397.53,35.56Z"/><path class="cls-1" d="M414.56,41.76l-.14,2.11H403.25c.14-2.64.27-5.54.27-8.57s-.13-5.54-.27-7.79h10.51l-.14,2.11c-2.52-.13-5.18-.13-7.84-.13.13,1.32.13,2.9.13,5,2.26,0,4.39-.14,6.39-.14l-.14,2c-2-.13-4.12-.13-6.38-.13,0,2.11.13,4,.13,5.81C409,41.89,411.76,41.89,414.56,41.76Z"/><path class="cls-1" d="M428.39,39.65q0,4.76-7.19,4.75a17.16,17.16,0,0,1-4.65-.53l.53-2.11a10.87,10.87,0,0,0,4.12.79c3.06,0,4.66-.79,4.66-2.11a2.52,2.52,0,0,0-1.06-2,17.79,17.79,0,0,0-3.2-1.58,11.22,11.22,0,0,1-3.45-2,3.81,3.81,0,0,1-1.33-3,4,4,0,0,1,1.46-3.17,7.37,7.37,0,0,1,4.52-1.32,16.54,16.54,0,0,1,4.39.4l-.4,2.11a12.92,12.92,0,0,0-4.12-.53c-2.4,0-3.59.66-3.59,2a1.89,1.89,0,0,0,.93,1.71,10.52,10.52,0,0,0,2.79,1.32,13.2,13.2,0,0,1,3.72,2A3.39,3.39,0,0,1,428.39,39.65Z"/><path class="cls-1" d="M445.41,43.87h-3.33c0-.26-.93-1.71-2.92-4.09q-3.2-4-4.39-4h-.4c0,2,.13,4.62.13,8h-2.79c.13-2.64.27-5.54.27-8.57s-.14-5.54-.27-7.79h2.79c-.13,2.25-.13,4.49-.13,6.73h.27c.4,0,1.59-1.05,3.72-3.17s2.93-3.29,2.93-3.56h2.92c0,.27-.93,1.32-2.79,3.17s-3.33,3-4.12,3.69v.14c1.06.39,2.66,2.11,5.05,5C444.34,42.16,445.41,43.61,445.41,43.87Z"/><path class="cls-1" d="M461.23,43.87h-2.92a29.66,29.66,0,0,0-2-4.88,3.24,3.24,0,0,0-1.46-1.71,6.45,6.45,0,0,0-2.66-.4h-2c0,2.64.13,4.88.13,6.86h-2.79c.13-2.64.26-5.54.26-8.58s-.13-5.54-.26-7.78h2a7.25,7.25,0,0,0,1.6-.13,10.27,10.27,0,0,1,2.12-.13c4,0,6,1.32,6,3.82,0,2.11-1.07,3.57-3.33,4.49v.13a4.56,4.56,0,0,1,2.4,1.85C459,38.6,459.9,40.71,461.23,43.87Zm-4.39-11.74c0-2-1.46-2.9-4.12-2.9-.93,0-1.86.13-2.52.13.13,1.45.13,3.3.13,5.8h1.46C455.12,35.16,456.84,34.11,456.84,32.13Z"/><path class="cls-1" d="M474.8,41.76l-.14,2.11H463.49c.14-2.64.27-5.54.27-8.57s-.13-5.54-.27-7.79h10.38l-.14,2.11c-2.52-.13-5.18-.13-7.84-.13.13,1.32.13,2.9.13,5,2.26,0,4.39-.14,6.38-.14l-.13,2.11c-2-.13-4.12-.13-6.38-.13,0,2.11.13,4,.13,5.81C469.21,41.89,472,41.89,474.8,41.76Z"/><path class="cls-1" d="M480.38,43.87h-2.79c.13-2.64.27-5.54.27-8.57s-.14-5.68-.27-7.79h2.79c-.13,2.25-.13,4.88-.13,7.79S480.25,41.1,480.38,43.87Z"/><path class="cls-1" d="M495.54,39.65q0,4.76-7.18,4.75a17.12,17.12,0,0,1-4.65-.53l.53-2.11a10.87,10.87,0,0,0,4.12.79c3.06,0,4.66-.79,4.66-2.11a2.5,2.5,0,0,0-1.07-2,17.24,17.24,0,0,0-3.19-1.58,11.29,11.29,0,0,1-3.46-2,3.81,3.81,0,0,1-1.33-3,4,4,0,0,1,1.47-3.17A7.34,7.34,0,0,1,490,27.38a16.64,16.64,0,0,1,4.39.4l-.4,2.11a12.94,12.94,0,0,0-4.13-.53c-2.39,0-3.59.66-3.59,2a1.91,1.91,0,0,0,.93,1.71,10.63,10.63,0,0,0,2.8,1.32,13.34,13.34,0,0,1,3.72,2A3.38,3.38,0,0,1,495.54,39.65Z"/><path class="cls-1" d="M18.8,45.46ZM20,37.67c.26.66.13,1.59.79,2,.54.92,1.73,1.32,2.13,2.38.53.66,1.6,1,1.6,2.11v1.18c0,.4-.8.66-.53-.52a6.28,6.28,0,0,0-1.6-2.51c-1.33-1.72-2.93-2.11-2.53-4.75Zm4.12-.53c0,.27.13.4.13.53,0,1.06,1.46,2.11,1.2,2.9-.4,0-1.2-1.71-1.46-2.11-.54-.39-.27-1.71-.27-2.24C24.12,35.69,24.12,36.88,24.12,37.14Zm-1.6-1.58c-.4.53-.66,1.72-.26,2.11A11.11,11.11,0,0,0,24,41.5c.13.13,1.06.92.93,1.45.13,1.32-2.13-2-2.13-2-.53-.79-1.33-1.06-1.86-1.85-.27-.39-.8-2.77-.53-2.9a5.09,5.09,0,0,1,.39-1.32c.14-.13.4,0,.54,0,0,.4-.67,3.7.13,3.3-.27-.4-.27-3,.13-2.9C22.12,34.9,22.39,34.77,22.52,35.56Zm5.59-.4c-.13-.13-.4-.13-.27-.26S28.51,35.16,28.11,35.16Zm1.2-.65c.26-.14.13,1.18,0,.92Zm-1.73.26a3,3,0,0,1-.67-.66C26.91,34.24,27.58,34.51,27.58,34.77Zm-8.51,0c.13,0,.39.13.39-.13A7.78,7.78,0,0,0,19.2,37c-.13,0,0-.79-.53-.92,0-.27.26-1.72,0-2,0-.4-.27-.66-.14-1.06C19.07,32.53,18.67,34.51,19.07,34.77Zm9.44-1.58c.26-.14.53.26.66.26s.14.13.14.26,0,.93-.4,1.19c.13,0,.26.13.13.4-.27,0-1.46-1.06-1.06-1.19.13-.26-.54-.4-.67-.4s-.27-.52-.53-.52c0-.4-.53,0-.53-.53C26.25,32.53,28.11,33.32,28.51,33.19ZM19.86,32a8.82,8.82,0,0,1-.4,2.51c-.26.39.27-2.12.27-2.38C19.86,32.26,19.86,32,19.86,32Zm10,.13c0,.92-1.07,1.19-1.07.79.27-.13.4,0,.67-.26,0,0,.13-.27.13-.13C29.7,32.39,29.7,32.26,29.84,32.13Zm.53-1.58c-.13.52-.67.52-.13.26C30.37,30.68,30.24,30.55,30.37,30.55Zm-2.66-.79c.27.52,1.33-.66.8.52-.27,0-.8.27-.93.14s-2.53-.66-2.53-1.06S27.58,29.76,27.71,29.76Zm9.18,0c0,.13.13.13,0,0Zm-17-.93c-.13,0,0,.93-.13.93C19.73,29.49,19.73,29,19.86,28.83Zm17,.93c-.27,0-.27-.27-.4-.53C36.49,29.36,36.89,29.62,36.89,29.76ZM20,28.17Zm2.52.13c.93-.79,0,1.06,0,1.19a3.21,3.21,0,0,0-.26,1.19c-.27.66.66,1.19.66,1.85-.26,0-.93-.53-.93-.8,0,0-.13-.79-.26-.52-.27-.66.13-1.59.13-2.25-.4.27-.13,1.46-.27,1.85-.93.53-.8-2.24.27-2.77C22.26,27.38,22.52,28.3,22.52,28.3Zm-2.26-.52Zm16,1.71-.93-.92C35.42,28.3,36.49,29.23,36.22,29.49ZM20.66,27c0,.14,0,.14-.13.27C20.53,27.12,20.53,27,20.66,27ZM39,28c.67-.53,2.4,1.32,2.13,2-.27,0-.27-.4-.53-.4.53,1.59-1.46-.52-1.33.27-.27,0-.53-.27-.67-.27-.66.14-.93-.39-1.59-.26h0c.26,0,.13-.53,0-.66a4.36,4.36,0,0,0,.93-.4c.13.27-.13.66.53.53.67-.53,2,.66,2.13.53s-.53-.92-.8-.92c-.13-.27-.8-.27-.8-.27ZM20.79,26.72Zm17.82,1.06c0,.13-.26.26-.39.26C38.35,27.91,38.48,27.78,38.61,27.78Zm-2.52.79c-.4-.53-.67-.53-1.2-.93.27,0,.27,0,.27-.26C35.56,27.64,36.35,28.17,36.09,28.57Zm2.66-.93ZM30,26.32c.27.53.13,2.12-.53,2.12-.13,0-.27-.27-.13-.53.53-.53.39-1.06.39-1.72C29.7,26.32,30,26.19,30,26.32Zm3.32.27c-.13.13-.79-.53-1.19-.53-.13,0-1.33-.13-.93-.26S33.16,25.93,33.29,26.59Zm-6.78-1.32A1.61,1.61,0,0,0,26.65,27c.13.14-.14,0-.14.27-.26.26-.4-1.32-.26-1.58a2.88,2.88,0,0,1,.13-.53A.13.13,0,0,1,26.51,25.27ZM26,24.61c-.4.26-.13,2-.13,2.51s-.27-.27-.4-.27-.13-2,.13-2.11l.27-.53S26,24.21,26,24.61Zm1.06,0a2.93,2.93,0,0,1,.14-.53C27.31,23.69,27,24.48,27,24.61Zm8.25.13c-.13.27-1.46,0-1.6.27-.53.13-.53.13-.66-.27-.67.13-1.06.13-.53-.53.53,0,1.19-.13,1.73-.13S35.42,24.08,35.29,24.74ZM21.86,23.42c0,.4-.53,2.38-.67,2.25.14-.14,0-.27.14-.4A4.8,4.8,0,0,1,21.86,23.42Zm.66-.13c0,.92-.13.66,0,.26Zm11.71.13H31.17c-.27-.26,2.52-.66,2.66-.79C34.36,22.23,34.36,23,34.23,23.42ZM25.58,22.1c0,.27-.53,1.06-.53,1.19-.27.26-1.06,2.9-.4,2.77.27.92.4-1.19.4-1.32.53-.66-.13-.79.66-1.71.14.26.27-.4,0,0,.14-.53,1.47-1.06,1.47-.53-.67.53-.93.39-1.2,1.32.93.13,0,1.19.67,0a3.52,3.52,0,0,1,1.06-.93c-.27-.26.93-.26.93-.13.27.27-.53.4-.53.53s-.4.26-.27.26H28c-1.07.8-.14.4,0,.53a9.4,9.4,0,0,1-.67,1.72,7.5,7.5,0,0,0,0,1.71c-.13.13,0,.13,0,.27.53.39,0-.4.13-.66-.53-.66.4-1.85.54-2.51.53-1.19,2.52,0,1.33-.13-.14.13-.54.13-.67.26s-.53.93-.53,1.06c-.27,0,.4,2.11.26,2.37.14.27.54.4.54.79,0,.66-1.6-1.05-2-1.05,0-.27-.8.13-1.06,0s-1.2.79-.93-.27c.13-.13.26,0,.4-.26s-.4-.13-.54,0c-.66.26-.53-.26-.66-.26-.67.39-.4.13-.53-.27,0,.13-.14,0-.27.13s-.13.27-.26.27c-.54.26.13-1.19.26-1.19,0-.26.4-3.17.67-3.17.13-.52.53-.79.79-1.18A.7.7,0,0,1,25.58,22.1Zm5.72.27A1.38,1.38,0,0,1,32,21.18l.53-.13C33.56,21.05,32,22.5,31.3,22.37Zm1.2-2.51c.53,0-1.2,1.72-1.73,1.32-.13-.53.53-.66.66-.92A1.76,1.76,0,0,1,32.5,19.86Zm-1.2-.53c.4.27-1.06,1.19-.93,1.72-.27.26.13.92-.4.79-.27,0-.53-.26-.8-.26a12.18,12.18,0,0,0-3.06.26c-.66.66-.4-.66.14-.4.66-.92,2-.39,2.66-.66a1.13,1.13,0,0,1,1.19-.92c.14.4.27-.4.67-.53S31.17,19.33,31.3,19.33Zm-4.92.27c-.67.66-.27,1.45-1.46,1.32.13-.4.66-2,1.06-2a.46.46,0,0,1,.13-.27C26.91,18.67,26.25,19.2,26.38,19.6Zm8-.66c.13,0-.13.39.13.26-.13.26,1.46.66,1.73.79s0,.27.13.53c.27,0,.27,1.32,1.2,1.58.4.13-.27.93.13,1.19,0,.26,1.73,1.58,0,1.32a1.7,1.7,0,0,1-.66-.92.48.48,0,0,1-.4-.14c-.27,0,0-.26-.27-.39,0-.66-.66.13-.53-.66.27-.13,0-.79,0-.79v-.27c-.93.27-.53-.39-.66-.39,0-.53.66-.66-.27-.66a8.15,8.15,0,0,0-1.06-1.06c-.27,0,0-.39,0-.53C34.09,18.41,34.09,18.8,34.36,18.94Zm3.86-.27c0-.13,0-.13-.14-.26C38.35,18.54,38.35,18.67,38.22,18.67Zm.13-.66c0,.13,0,.27-.13.27S38.35,18.14,38.35,18Zm9.31.27c.53.52-.27.26-.27-.14C47.39,18,47.52,18.14,47.66,18.28Zm-9-.79c0,.13-.53.39-.39.13Zm7.85.26c1.06.66.53.39.13.26C46.46,18,46.46,17.88,46.46,17.75Zm-.66-.26c.13.13.26.13.53.26A1,1,0,0,1,45.8,17.49Zm-.14,0ZM32.36,16.3c.14.39-.13.53-.39.53-1.2,0-2.8,2.37-4,2,.13-.66,0-.26.39-.52s.94-.66,1.47-1.06c.26-.53,1.33-.66,1.59-.79S32.36,16,32.36,16.3Zm13.7-.13c.4.26.53.66.93.92-.13,0-.26-.26-.4-.26s-.66-.53-.53-.66ZM45,15.24Zm-10.38-.79c.94.26-.53.92-.66.79-1.2.66-2.66.79-3.86,1.45-.53.27-.66.93-1.33.66-.26-.79,2-2.11,2.66-2.24.14-.13,2-.26,2.26-.53S34.23,14.19,34.62,14.45Zm8.78.13c-1.06-.53-5.72-1.58-5.85-.53a3.45,3.45,0,0,0,1.2,0c.13.27,3.32.53,3.85.93.27,0,.54.39,1.07.39,0,0,.13-.39,0-.39.13-.53.93,1.32,1.06.79,0,0,.8.4.53.4-.13.79.54.66.8,1.18-.26,0-4.52-2.24-4.65-1.45A14.5,14.5,0,0,1,39,16c-.13-.26.14-.52-.53-.52-.93-.14-4.65-.8-4.79.79.14.39,4-.66,3.86-.27-.93,0-2.26.66-3.19.53-2.53.53-.93,1.45-.8.93.67.13,1.73-.53,2.39-.27.94-.39,1.73,0,2.66-.26-.26.53-2.66.26-2.92.53h.13c-.8.13-.26.52,0,.26-.13.39,1.33-.4,1.33.39.53,0-.66.8.27.8.4,0,.26,1.18.26,1.45l.4.13c0,.53.14.26.27.53.4.53.93-.4.8.92.13.26.4.13.53.13.4-.13.26,1.19.53,1.06.13.13,1.2.13,1.06.26-.53.13.14.53.27.53a1.61,1.61,0,0,0-.67,1.58c-.26.27-.53,1.45-.26,1.45-.93,0,.53.93-.8.66,0-.66-.66-.13-.8-.26a5.74,5.74,0,0,0,.54-.92,4.26,4.26,0,0,0-.4-1.85c0-.26-1.07-.26-.8.53-.53.26,0,.53.13.53v.26c.8.13,0,.92-.26,1.19a4.75,4.75,0,0,0-1.2.66c-.13,0,0,.26-.13.26-.27-.26-1.47-1.58-2.13-1.45-.4.13-.27-.27-.4-.53a6.48,6.48,0,0,0-2.26-1.32c-.53-.26-2.26-.53-2.26.4.26.26.8-.13.8.13s.13.13.26.13c-.26,0-.53,1.19.27.66a2.94,2.94,0,0,1,1.73.53c0,.26.79.66.79.79a1.29,1.29,0,0,1-.4.13c.14.93-.79.27-1.32.66,0,.27-.27.13-.54.27h.14c.13.39-1.2,1-1.47,1.18.14.27-.4.66-.4.8-.26,0-.13.39-.26.52.26.53-.27,1.32-.4.66,0-.13-.53-.26-.53-.13s-1.33.26-1.47.26c-.26-.52-.13-.52-.66-.66,0-.13-.8-.79-.8-.79-.4.27-2.52.53-.4,1.32,0,0,.93.93.4.66-.13.13.4,1.19.4,1.19.53,0,.4,1.06.8,1.32-.13.26,1.73,1.19,2,1,0,.27.4.14.67.14s.26-1.72.4-1.85.13.13.26.26.14-.13.14,0c.26.53.53,1.32.79,1.85l.4,1.45A4.1,4.1,0,0,0,30,40.31c-.13-.26,0-.66-.13-.79.13-.79-1.07-3.7-2.13-3.43,0,.53,0,.53.4.79v.26c1.33,1.19,1.2,4.36,1.06,5.81a2.54,2.54,0,0,1,0,1.45c-.26,0-.66,1.45-1.06,1.72a5.13,5.13,0,0,0,0-4c-.53-1.06-2-2.51-2.13-3.7-1.06-.13.53,2.64.93,3.17,0,.26.27.26.27.53a4.26,4.26,0,0,1,.66,2.9c0,1.45-1.73,2.24-2.92,2.38a3.19,3.19,0,0,0-3.06-.14c-.8.53-2.4-.26-3.06-.92.4,0,2.39,1.19,2.39.13-.13-.26-1.73-.53-2-.66a4.35,4.35,0,0,0,1.2.4,7.51,7.51,0,0,0,1.72,0c.67-.53-1.46-.66-1.72-.66l-1.2-.53c-1.73-.79-1.07-1.58-1.07-2.9,0-.66-.66-3.43,0-3.3.4.53-.13,1.45.27,2,.4,0,.53,2.11,1.6,2.11h0c.66.4.26.92,1.19.92a.79.79,0,0,0-.13-.79c.27-.26-1.33-1.32-1.46-1.58-.67-.53-1.33-3.56-.67-4.36.14,1.32.14,3,.8,4.23a1.82,1.82,0,0,0,1.06.92c.14,0-.13-.26-.13-.53.27,0,0,.27.27.27-.14.39,1.73,1.18,1.46,2,.93.66-.4-1.84-.66-2a5.09,5.09,0,0,1-1.87-2.51c-.26-.26-.4-2.24-.26-2,.8.13.4-1.06.66-1.58.53-.93.27-2.38.4-3.3.13,0,.8.53,1.07.66-.54,0,1.19.53,1.19.53.53.26.14,0,0,0,.14,0,.4.26.53.26.14.26,1.07.26,1.33.4.14-.14,1.6.26,1.47.13.13,0,.13-.13.26-.27a4.85,4.85,0,0,1-1.33-.92c-1.06-.53-1.46-2.11-1.46-3.3.27-.53.67-.79-.13-.92a1.62,1.62,0,0,0-.53,2,13.05,13.05,0,0,0,.66,1.45c-.53,0,.93,1.05,1.2,1.19-.14,0-2.66-1.06-2.66-.8-.53,0-1.2-.92-1.33-.92-.27-.26-.27-1.32-.93-.26a3.4,3.4,0,0,1,0-1.19c1.06.13.4-1.06.66-1.72a4.82,4.82,0,0,1,.67-1.45c0-.26-.14-.66.26-.92,0,.66.53.39.93.26s.27-.66,0-.66.27-2.24.93-2.5c.27,0,.4-.8.54-.93,0-.39.93-.92.13-1.18-.27,0-.53,1.45-1.33,1.58.27-.4.4-.13.4-.66-.27-.27.66-1.85.93-2.11A27.45,27.45,0,0,0,25.85,18c-.27.27-.27,1.19.26.79,0-.13.27-.66.4-.66.27.4.67-.39.14-.26a1.79,1.79,0,0,0,.26-1.19c-.4,0,1.6-1.45,1.6-1.45h.13a4.27,4.27,0,0,0,1.73-.53,19.93,19.93,0,0,1,5.32-1.32C36.49,13.13,43.67,13.66,43.4,14.58ZM34,35.16c0-.13-.13-.39,0-.52s.13-.4.13-.53a.46.46,0,0,0,.27-.13.13.13,0,0,0,.13-.13c-.13-.27.27-.14.53-.14a2.31,2.31,0,0,1-.13.93.78.78,0,0,0,.13.52c.14,0,.14.14.27.27V36c-.27.26-.4.26-.8.26,0-.13.13-.4,0-.66A1.46,1.46,0,0,0,34,35.16Zm1.86,5.68c.27-.53,1.46,2.37,1.6,2.64a2.89,2.89,0,0,1,.66,1.05C37.68,45.32,36,41.23,35.82,40.84Zm12.37-.66c-.27.92-.53,3.17-.67,3.17a5.52,5.52,0,0,1,.27-3.17,4.91,4.91,0,0,1,.93-1.85A11,11,0,0,1,48.19,40.18Zm-6.38-4v.4a1.88,1.88,0,0,0-1.6.92c-.53,0-.53-.4-.4-.53s1.06-.53.67-.92a17.69,17.69,0,0,1-1.6-.79c-.27-.14,0-.53,0-.53C39.41,35,41.14,35.82,41.81,36.22Zm5.71-.92c0,.26-.66,1.45-.79,2a2.52,2.52,0,0,1-.54,1c0,.13-.53.13-.53-.13s.14-.53,0-.66-.66-.79-.4-.92.67.66.8.52.93-1.84.93-2A.75.75,0,0,1,47.52,35.3Zm4.13,0c.13.39-.27.13-.54.13s-.53.26-.53.39-.13.27-.26,0C50.45,35.43,51.25,34.9,51.65,35.3ZM34.36,36a1.25,1.25,0,0,1-1.46-.27c-.27-.39-.67-.92-.54-1.45,0-.26.27-.13.4-.13a.76.76,0,0,0,.14.53,1.48,1.48,0,0,0,.66.66c.13.26.67.13.67.26A.49.49,0,0,1,34.36,36Zm.13-4.09h.27a3.57,3.57,0,0,1,0,1.18c0,.14-.27,0-.4,0v-.52h-.13C34.36,32.53,34.36,32,34.49,31.87ZM33.83,30A2,2,0,0,1,35,31.21v.39h-.26c-.14-.13-.27-.13-.53-.13a3.11,3.11,0,0,0-.94,1.85h-.53c-.13-.53.14-.79.27-1.45a2.22,2.22,0,0,0,.26-1.19c-.53,0-1.19.39-1.19,1.58,0,.27.13.53,0,.79h-.4C31.17,30.94,32.9,29.76,33.83,30Zm16.49-.26a1,1,0,0,1-.14.66c-.13.13-.13.39-.4.39-.13.26-.53.13-.66.26a1,1,0,0,1-.13.66.45.45,0,0,0,.26.14v.39c-.13.13,0,0-.13.27s-.13.92,0,1l-.13.13c-.14,0-.27.14-.4.14v-.4c.26,0,0-.26,0-.4-.4-.52.13-.66.13-.66s.13-.26,0-.26c-.27-.26-.93,0-.93-.53h-.53v-.39s-.27,0-.27.13a.9.9,0,0,1-.8.13c-.13,0-.13.13-.26.13v-.39c.13-.14.13,0,.26-.14s.54-.13.67-.26.13-.26.27-.26h0a2,2,0,0,0,.53-.4c.26,0,.4-.13.53-.13s.4-.13.53-.26h.4c.13,0,0,.26.13.39s.27-.13.4-.26S50.05,29.62,50.32,29.76ZM27.84,47.17c1.2.4,2.66,1.32,3.86,1.85,4.25,2,10.37,5.94,13,8.57.53-.26,0-5.54-.26-6.72V50.6A7.25,7.25,0,0,1,41.27,49a.89.89,0,0,1-.53-.66c.27-.26.53.13.8.26a19.41,19.41,0,0,0,2.93,1.45,3,3,0,0,0,1.46-.13,3,3,0,0,0,1.2-.92c-.27-.27-.67-.27-.67-.79.4-.27.93.39,1.33.39A2.25,2.25,0,0,0,51.11,48a2,2,0,0,0,.54-1.84,1.67,1.67,0,0,0-.14-.66,1.92,1.92,0,0,1,.27-1.19c.4-.27,1.2-.79,1.2-1.19-.14-1-1.73-.66-2.4-.79-.13.13-.66,0-.93,0-.53-.53.93-.66,1.33-.79,1.33-.13,1.6,0,1.73-.53.53-1.32-.4-1.85-.53-3a1.6,1.6,0,0,1-1.73-.27c-.27,0-.53-.66-.53-.92a.44.44,0,0,1,.13-.27c.13,0,.27,0,.27.14,0,.39.4.66.66.79s.4-.13.53-.13.27-.4.54-.4a2.65,2.65,0,0,1,1.46.4.82.82,0,0,0,.8-.14c.26-.26.13-.66,0-.92S53.64,35,53.11,34a29.63,29.63,0,0,1-1.46-2.77c-.14-.27-.27-.4-.27-.66v-.79c-.13.13-.93.52-.8.13s.4-.4.27-.53-.53,0-.53-.26c-.27,0-.27-.14-.4-.27V29a.49.49,0,0,1-.4-.13c-.13,0-.27.13-.4,0H49c-.27.13-.4.27-.67.27a1.41,1.41,0,0,1-.66.26s-.14,0-.14.13a.48.48,0,0,1-.39-.13c0-.13-.14-.13-.14-.26-.13-.4.27-.27.4-.53V28.3c0-.13.13,0,.13-.26s.54,0,.4-.26a.52.52,0,0,0,.53-.27h0s0-.26.14-.13h.13c0-.13,0-.13.13-.13h.4c0-.13.4-.13.67,0s.4-.13.66,0h0c.14.26.4-.13.4.26s.27.27.4.27.27.52.27.26a24.26,24.26,0,0,0-3.59-9.1c-1.2.39-2.4-1.32-3.33-1.59s-.8-.79-1.33-.92-2.79-.92-3.85,0c-.67.53-1.73,1.85-.67,2.77,0,1.06.67.4.8.92s.66.66.66,1.19c.14,0,0,.13,0,.27.4-.14,1.33,1.31,1.86,1.31h0c.54,1.19-.39,2-1.19,2.64-.8.93.66,1.32.53,2.38a15.41,15.41,0,0,1-.27,2.64c0,.39-5.85-.66-6.51-.66a2.28,2.28,0,0,0-2.66-.66c-.67.26-.93,1.05-1.2,1.71a7.53,7.53,0,0,0,1.2,5.28c.26.26.26.66.53.92a5.67,5.67,0,0,0,.8,1.06c.8.53,1.33.66,2-.66,0-.26.4.13.4.13,0,.93-1.33,2.11-2.26,1.32-.53-.13-.93-.66-1.33-1.32a9,9,0,0,1-1.2.93c-.26-.14-.93,1.31-.93,1.45-.13.92-.66,1.32-.53,2.37,0,.66-.4,1.19-.26,1.85a5,5,0,0,1-1.2,2.11C28.24,47,27.58,47.17,27.84,47.17ZM26.91,47c-1.2.66-2.13,1.32-3.72.26-.4-.26-2.13,1.19-4.66-.26-.53-.13-1.06-1.32-1.33-1.85a1.57,1.57,0,0,1-.39-1.71c-.14-.66.26-1.45.13-1.85.13-.26-.4-1.72-.4-2.11-.27-.53.4-2,1.06-3.83.53-.92-.26-1.45.14-2.9,0-1.32,1.19-1.85,1.19-2.9.14,0,0-1.85.4-2.11.27-.53.8-1.19.93-1.46.53-.39.4-.92.53-1.45a7.77,7.77,0,0,1,1.87-3.56c0-.26.93-1.32.93-1.45s.4-.66.93-1.45a13.5,13.5,0,0,1,1.33-1.72,10.05,10.05,0,0,1,2.66-2.24c.13-.13,4.39-1.45,4.52-1.58a15.26,15.26,0,0,1,6.52-.13,11.26,11.26,0,0,1,4.52,1.45,8.41,8.41,0,0,1,4,3.16,4.16,4.16,0,0,0,.39.66c0,.13.27.53.27.79a23.72,23.72,0,0,1,3.59,9.11c.27,0,.27.26.27.39a.46.46,0,0,0-.14-.39c.27.13.54.26.54.66,0,0-.14-.4,0-.27a.7.7,0,0,1,.13.66c0,.27,0,.4-.13.4,0,.26-.27.26-.4.26-.14.27-.4.14-.53.14-.27.39-.14.39,0,.66.93,2,2.66,4.22,3.19,6.06a1.45,1.45,0,0,1-.53,1.19c-.27.4-2-.13-2,.13a6.11,6.11,0,0,0,.4,1.46A3.55,3.55,0,0,1,53.24,41c-.13.53-.53.66-.53.79.27.13,1.86,1.45.27,2.38-1.2.66-1.2,1.18-1.07,1.84a3.1,3.1,0,0,1-2.39,3.57,2.53,2.53,0,0,1-2.13-.4,2.35,2.35,0,0,1-1.33,1.19,2.23,2.23,0,0,1-1.2.26c.27,1.59,1.07,7,0,7.65-.66.4-2.12-1.71-2.26-1.58-2.66-2.37-6.25-4.22-9.31-6.2a36.72,36.72,0,0,0-5.58-2.9C27.58,47.57,26.78,47.3,26.91,47Z"/><path class="cls-2" d="M69.33,39a32.39,32.39,0,1,1-30-34.3A32.25,32.25,0,0,1,69.33,39Zm4,.27A36.46,36.46,0,0,1,.58,34.11a36.46,36.46,0,0,1,72.74,5.15Z"/><path class="cls-3" d="M524.39,41.72l-.08,2.14H512.9c.13-2.93.19-6.15.19-9.68q0-5-.19-8.76h10.7l-.11,2.11q-3.9-.16-8.26-.17c.06,1.47.09,3.44.09,5.94q3.76,0,6.71-.17v2.11c-2.1-.09-4.33-.13-6.71-.13q0,3.64.13,6.82Q520.15,41.93,524.39,41.72Z"/><path class="cls-3" d="M529.15,43.86h-2.56c.13-1.89.2-4,.2-6.47a40,40,0,0,0-.5-6.87l2.83-.38q-.17,3-.17,7.25Q529,40.78,529.15,43.86Zm.6-17.7a1.83,1.83,0,0,1-.47,1.25,1.64,1.64,0,0,1-1.32.53,1.4,1.4,0,0,1-1.12-.46,1.6,1.6,0,0,1-.41-1.11,1.73,1.73,0,0,1,.49-1.23,1.7,1.7,0,0,1,1.33-.52,1.36,1.36,0,0,1,1.09.46A1.56,1.56,0,0,1,529.75,26.16Z"/><path class="cls-3" d="M544.29,43.86h-2.58q.31-3.72.31-8.13a4,4,0,0,0-.88-3,3.66,3.66,0,0,0-2.53-.8,5.59,5.59,0,0,0-3.71,1.46q0,4.83.06,10.45h-2.58q.24-4.81.24-7a33.15,33.15,0,0,0-.62-6.43l2.49-.35.27,1.73h.11a6.59,6.59,0,0,1,4.49-1.9A5.68,5.68,0,0,1,543,31c.86.7,1.29,1.93,1.29,3.7,0,.18,0,.54,0,1.07s0,.88,0,1.06Q544.23,39.18,544.29,43.86Z"/><path class="cls-3" d="M576.75,25.42q0,1-3.06,9.26t-3.06,9.18h-1.84q0-1.24-2.23-7.22a64,64,0,0,1-2.74-8.34h-.19a66.6,66.6,0,0,1-2.43,8.49,44.22,44.22,0,0,0-2,7.07h-1.84q0-1.44-3-9.68c-2-5.49-3-8.41-3-8.76h2.69a71.73,71.73,0,0,0,2.14,7.34q2.14,6.75,2.15,8.27h.15q0-1.61,2.18-8.22a56.32,56.32,0,0,0,2.18-7.39h2.48c0,.62.76,3.23,2.27,7.86A58.78,58.78,0,0,1,569.86,41H570c0-.93.69-3.54,2.06-7.85s2.06-6.9,2.06-7.76Z"/><path class="cls-3" d="M588.94,35.55c0,.39,0,.94-.06,1.64l-9.73.17a5.13,5.13,0,0,0,1.6,3.46,5.36,5.36,0,0,0,3.87,1.4,14.93,14.93,0,0,0,4-.53l-.24,2a11.23,11.23,0,0,1-4,.55,7.44,7.44,0,0,1-5.62-2,6.79,6.79,0,0,1-1.93-4.9A8.3,8.3,0,0,1,578.62,32a5.74,5.74,0,0,1,4.74-2.24,5.23,5.23,0,0,1,4.15,1.62A6,6,0,0,1,588.94,35.55Zm-2.37,0c0-2.66-1.11-4-3.33-4s-3.6,1.38-4,4.13Z"/><path class="cls-3" d="M604.91,28.62l-.23,2c-1.75,0-2.72.28-2.9.85v.14a3.9,3.9,0,0,1,.91,2.52,4.93,4.93,0,0,1-1.46,3.65,6.16,6.16,0,0,1-4.48,1.43,6.56,6.56,0,0,1-2.14-.28,1.47,1.47,0,0,0-.69,1.23,1.17,1.17,0,0,0,.82,1.21,15.39,15.39,0,0,0,4.38.39q5.39,0,5.38,3.57a5.17,5.17,0,0,1-2.1,4.22A8.43,8.43,0,0,1,597,51.18q-3.42,0-4.86-1.24a3.79,3.79,0,0,1-1.46-3,4.15,4.15,0,0,1,.72-2.55,3,3,0,0,1,1.78-1.19V43.1A2.07,2.07,0,0,1,592,41a3,3,0,0,1,1.41-2.44v-.11A4.29,4.29,0,0,1,592,37.23a3.46,3.46,0,0,1-.68-2.18,4.82,4.82,0,0,1,1.49-3.66A6,6,0,0,1,597.14,30a6.81,6.81,0,0,1,3.62.83h.16c.3-1.59,1.09-2.39,2.38-2.39A4.86,4.86,0,0,1,604.91,28.62Zm-2.54,17.63a2,2,0,0,0-1-1.87,8.13,8.13,0,0,0-3.64-.55,28.29,28.29,0,0,1-3.32-.17,2.64,2.64,0,0,0-1.72,2.45q0,3.47,4.53,3.46a6.67,6.67,0,0,0,3.74-.92A2.78,2.78,0,0,0,602.37,46.25Zm-2-11.58a3,3,0,0,0-1-2.39,3.75,3.75,0,0,0-2.5-.82,3.58,3.58,0,0,0-2.39.8,2.79,2.79,0,0,0-1,2.27,2.85,2.85,0,0,0,1,2.35,3.86,3.86,0,0,0,2.53.81,3.59,3.59,0,0,0,2.37-.79A2.72,2.72,0,0,0,600.41,34.67Z"/><path class="cls-3" d="M622.26,41.58l-.09,2.28H611.85l.11-2.19q.75-.73,3.84-4.48c2.24-2.73,3.35-4.26,3.35-4.59v-.15q-4.54,0-7.21.18l.09-2.22h9.82l-.14,2.22q-1.17,1.29-3.72,4.5c-2.12,2.68-3.17,4.2-3.17,4.56v.12Q619.09,41.81,622.26,41.58Z"/><path class="cls-3" d="M636.85,43.85l-2.19.08a5.73,5.73,0,0,1-.2-1.3h-.14a6.86,6.86,0,0,1-4.58,1.58A4.7,4.7,0,0,1,626.18,43c-.74-.79-1.11-2.37-1.11-4.76,0-.34,0-.85,0-1.52s0-1.13,0-1.37c0-1.39-.08-3-.24-4.9l2.63-.1c-.11,1.82-.17,3.38-.17,4.67,0,3,.19,4.91.58,5.82a2.48,2.48,0,0,0,2.58,1.35,6,6,0,0,0,3.74-1.13q0-7.87-.14-10.61l2.54-.1c-.07,1.77-.11,4.23-.11,7.36C636.54,39.75,636.65,41.79,636.85,43.85Z"/><path class="cls-3" d="M648.39,30.41l-.63,2.25a5.66,5.66,0,0,0-2.06-.44,3.31,3.31,0,0,0-3.45,2.54q0,6.51.08,9.1h-2.5q.23-4.48.22-7a30.61,30.61,0,0,0-.66-6.43l2.48-.35a14.76,14.76,0,0,1,.26,2.08h.12a4.34,4.34,0,0,1,3.57-2.25A9,9,0,0,1,648.39,30.41Z"/><path class="cls-3" d="M669.44,43.48a14.9,14.9,0,0,1-4.69.76q-5,0-7.5-2.65A9.18,9.18,0,0,1,654.72,35a9.76,9.76,0,0,1,10.37-9.85,13.32,13.32,0,0,1,3.33.41l-.36,2.35a16.65,16.65,0,0,0-3.76-.57,6.58,6.58,0,0,0-5.25,2.08,7.54,7.54,0,0,0-1.82,5.15,7.83,7.83,0,0,0,2.09,5.4,7.52,7.52,0,0,0,5.9,2.33,14.2,14.2,0,0,0,2.08-.22,21.46,21.46,0,0,1-.24-3.42,26.14,26.14,0,0,0-.2-3.22h2.58c-.08,1.25-.12,2.57-.12,3.95C669.32,40,669.36,41.36,669.44,43.48Z"/><path class="cls-3" d="M684.19,35.55c0,.39,0,.94-.06,1.64l-9.73.17A5.1,5.1,0,0,0,676,40.82a5.35,5.35,0,0,0,3.86,1.4,15,15,0,0,0,4-.53l-.24,2a11.33,11.33,0,0,1-4,.55,7.44,7.44,0,0,1-5.62-2,6.83,6.83,0,0,1-1.93-4.9A8.3,8.3,0,0,1,673.87,32a5.74,5.74,0,0,1,4.74-2.24,5.25,5.25,0,0,1,4.16,1.62A6,6,0,0,1,684.19,35.55Zm-2.37,0c0-2.66-1.1-4-3.32-4s-3.6,1.38-4,4.13Z"/><path class="cls-3" d="M695.84,40q0,4.14-5.28,4.14a19.43,19.43,0,0,1-4.36-.47l.44-2.08a11.09,11.09,0,0,0,4,.71c2.06,0,3.09-.59,3.09-1.76a1.57,1.57,0,0,0-.69-1.35,10.67,10.67,0,0,0-2.27-1.13,11.73,11.73,0,0,1-2.92-1.53,3.3,3.3,0,0,1-1.33-2.63,3.69,3.69,0,0,1,1.22-2.77A5.22,5.22,0,0,1,691.44,30a14.79,14.79,0,0,1,3.91.41l-.44,2a9.45,9.45,0,0,0-3.54-.61c-1.81,0-2.72.52-2.72,1.57a1.54,1.54,0,0,0,.61,1.28,10,10,0,0,0,2.38,1.18,11.63,11.63,0,0,1,2.83,1.48A3.32,3.32,0,0,1,695.84,40Z"/><path class="cls-3" d="M710.33,43.85l-2.19.08a5.21,5.21,0,0,1-.2-1.3h-.14a6.86,6.86,0,0,1-4.58,1.58A4.69,4.69,0,0,1,699.66,43c-.74-.79-1.11-2.37-1.11-4.76,0-.34,0-.85,0-1.52s0-1.13,0-1.37c0-1.39-.08-3-.24-4.9l2.63-.1c-.11,1.82-.17,3.38-.17,4.67,0,3,.19,4.91.57,5.82A2.51,2.51,0,0,0,704,42.22a6,6,0,0,0,3.74-1.13q0-7.87-.15-10.61l2.55-.1c-.07,1.77-.11,4.23-.11,7.36A60.25,60.25,0,0,0,710.33,43.85Z"/><path class="cls-3" d="M725.31,43.86h-2.58q.32-3.72.32-8.13a4,4,0,0,0-.89-3,3.66,3.66,0,0,0-2.53-.8,5.61,5.61,0,0,0-3.71,1.46q0,4.83.06,10.45H713.4q.24-4.81.24-7a32.39,32.39,0,0,0-.62-6.43l2.49-.35.27,1.73h.11a6.59,6.59,0,0,1,4.49-1.9A5.68,5.68,0,0,1,724,31c.86.7,1.29,1.93,1.29,3.7,0,.18,0,.54,0,1.07s0,.88,0,1.06C725.26,38.39,725.27,40.74,725.31,43.86Z"/><path class="cls-3" d="M740.62,43.85l-2.11.07a6.73,6.73,0,0,1-.12-1.29h-.15a5.73,5.73,0,0,1-4.42,1.61,5.24,5.24,0,0,1-4.28-2A7.24,7.24,0,0,1,728,37.57a8.5,8.5,0,0,1,1.77-5.39,6,6,0,0,1,5-2.27,4.66,4.66,0,0,1,3.28.94h.12q0-3.51-.2-6.9l2.69-.1q-.27,3.6-.27,9.42T740.62,43.85Zm-2.28-2.79q0-4.41-.24-8.49a4.36,4.36,0,0,0-2.86-.94,4.2,4.2,0,0,0-3.59,1.59,6.5,6.5,0,0,0-1.18,4,5.78,5.78,0,0,0,1.12,3.62,3.69,3.69,0,0,0,3.12,1.48A4.64,4.64,0,0,0,738.34,41.06Z"/><path class="cls-3" d="M755.76,43.86h-2.58q.32-3.72.31-8a4.25,4.25,0,0,0-.86-3.1,3.35,3.35,0,0,0-2.37-.8,6.36,6.36,0,0,0-4,1.46c0,5.15,0,8.64.12,10.45h-2.5q.14-3.73.13-10.56a83,83,0,0,0-.41-9.36l2.69-.14c-.07,2.87-.11,5.55-.11,8h.08a6.9,6.9,0,0,1,4.66-1.87A5.36,5.36,0,0,1,754.48,31c.85.7,1.28,1.93,1.28,3.7q0,.27,0,1t0,1.38C755.7,38.49,755.72,40.74,755.76,43.86Z"/><path class="cls-3" d="M770.47,35.55c0,.39,0,.94-.06,1.64l-9.73.17a5.13,5.13,0,0,0,1.6,3.46,5.38,5.38,0,0,0,3.87,1.4,14.93,14.93,0,0,0,4-.53l-.24,2a11.23,11.23,0,0,1-4,.55,7.44,7.44,0,0,1-5.62-2,6.79,6.79,0,0,1-1.93-4.9A8.3,8.3,0,0,1,760.15,32a5.74,5.74,0,0,1,4.74-2.24A5.23,5.23,0,0,1,769,31.4,6,6,0,0,1,770.47,35.55Zm-2.37,0c0-2.66-1.11-4-3.33-4s-3.6,1.38-4,4.13Z"/><path class="cls-3" d="M775.69,43.86h-2.56c.13-1.89.2-4,.2-6.47a40,40,0,0,0-.5-6.87l2.84-.38c-.12,2-.17,4.39-.17,7.25Q775.5,40.78,775.69,43.86Zm.6-17.7a1.83,1.83,0,0,1-.47,1.25,1.64,1.64,0,0,1-1.32.53,1.4,1.4,0,0,1-1.12-.46,1.6,1.6,0,0,1-.41-1.11,1.73,1.73,0,0,1,.49-1.23,1.7,1.7,0,0,1,1.33-.52,1.35,1.35,0,0,1,1.09.46A1.56,1.56,0,0,1,776.29,26.16Z"/><path class="cls-3" d="M786.6,41.91l-.17,1.84a6.24,6.24,0,0,1-2.11.41c-1.7,0-2.86-.43-3.49-1.3s-.93-2.41-.93-4.64c0-1.44,0-3.32,0-5.65q-.79,0-2.34.09l.09-2c.89.05,1.7.08,2.4.08,0-.57,0-1.91.14-4l2.23-.23q-.24,3-.24,4.26c.92,0,2.28-.05,4.08-.14l-.1,2.11c-1.7-.06-3.07-.09-4.1-.09,0,1.43,0,3,0,4.82a8,8,0,0,0,.61,3.86,2.52,2.52,0,0,0,2.29.94A6.94,6.94,0,0,0,786.6,41.91Z"/><path class="cls-3" d="M805.75,30.41q0,.69-2.86,6.69c-1.92,4-2.87,6.25-2.87,6.76h-1.9q0-1-2.53-6.93a47.87,47.87,0,0,1-2.52-6.52h2.74a32.27,32.27,0,0,0,1.84,5.39,32,32,0,0,1,1.85,5.4h.12a31.31,31.31,0,0,1,1.75-5.2,24.35,24.35,0,0,0,1.75-5.59Z"/><path class="cls-3" d="M820.56,36.72a7.53,7.53,0,0,1-2.08,5.66,6.75,6.75,0,0,1-4.9,2,6.33,6.33,0,0,1-4.52-1.8,6.63,6.63,0,0,1-1.89-5.06,7.65,7.65,0,0,1,2.09-5.71,6.77,6.77,0,0,1,4.9-2.06,6.27,6.27,0,0,1,4.52,1.82A6.78,6.78,0,0,1,820.56,36.72Zm-2.44.5A7,7,0,0,0,817,33.29a3.8,3.8,0,0,0-6.3-.09A6.58,6.58,0,0,0,809.61,37a7.11,7.11,0,0,0,1.11,3.94A3.81,3.81,0,0,0,817,41,6.7,6.7,0,0,0,818.12,37.22Z"/><path class="cls-3" d="M835.22,43.86h-2.58q.32-3.72.32-8.13a4,4,0,0,0-.89-3,3.66,3.66,0,0,0-2.53-.8,5.61,5.61,0,0,0-3.71,1.46q0,4.83.06,10.45h-2.58q.24-4.81.24-7a32.39,32.39,0,0,0-.62-6.43l2.49-.35.27,1.73h.11a6.59,6.59,0,0,1,4.49-1.9,5.68,5.68,0,0,1,3.64,1c.86.7,1.29,1.93,1.29,3.7,0,.18,0,.54,0,1.07s0,.88,0,1.06C835.17,38.39,835.18,40.74,835.22,43.86Z"/><path class="cls-3" d="M859,43.86h-3.1a19.88,19.88,0,0,0-1.62-2.46A47.23,47.23,0,0,0,850.85,37c-1.39-1.58-2.43-2.37-3.1-2.37h-.44q0,3.31.14,9.25h-2.66c.14-2.93.22-6.15.22-9.68,0-3.33-.08-6.25-.22-8.76h2.66q-.13,3.76-.14,7.65h.33c.52,0,1.81-1.2,3.89-3.61s3.1-3.75,3.1-4h3c0,.29-1,1.45-3,3.51a42.39,42.39,0,0,1-4.5,4.14v.14c1.09.42,2.89,2.29,5.42,5.62Q859,43.44,859,43.86Z"/><path class="cls-3" d="M873.48,36.72a7.53,7.53,0,0,1-2.08,5.66,6.76,6.76,0,0,1-4.9,2,6.31,6.31,0,0,1-4.52-1.8,6.63,6.63,0,0,1-1.89-5.06,7.65,7.65,0,0,1,2.08-5.71,6.79,6.79,0,0,1,4.91-2.06,6.29,6.29,0,0,1,4.52,1.82A6.82,6.82,0,0,1,873.48,36.72Zm-2.45.5a7.1,7.1,0,0,0-1.11-3.93,3.8,3.8,0,0,0-6.3-.09,6.59,6.59,0,0,0-1.1,3.78,7.11,7.11,0,0,0,1.11,3.94,3.81,3.81,0,0,0,6.31.07A6.62,6.62,0,0,0,871,37.22Zm-5-11.07a1.68,1.68,0,0,1-.44,1.14,1.5,1.5,0,0,1-1.19.48,1.21,1.21,0,0,1-1-.42,1.51,1.51,0,0,1-.36-1,1.62,1.62,0,0,1,.43-1.1,1.59,1.59,0,0,1,1.21-.47,1.23,1.23,0,0,1,1,.4A1.48,1.48,0,0,1,866,26.15Zm5.35,0a1.72,1.72,0,0,1-.43,1.14,1.54,1.54,0,0,1-1.2.48,1.23,1.23,0,0,1-1-.42,1.51,1.51,0,0,1-.35-1A1.54,1.54,0,0,1,870,24.76a1.22,1.22,0,0,1,1,.4A1.48,1.48,0,0,1,871.33,26.15Z"/><path class="cls-3" d="M884.7,30.41l-.64,2.25a5.65,5.65,0,0,0-2-.44,3.32,3.32,0,0,0-3.46,2.54q0,6.51.08,9.1h-2.5q.23-4.48.23-7a30.61,30.61,0,0,0-.67-6.43l2.48-.35a15.32,15.32,0,0,1,.27,2.08h.11a4.34,4.34,0,0,1,3.57-2.25A9,9,0,0,1,884.7,30.41Z"/><path class="cls-3" d="M898.66,36.58a8.58,8.58,0,0,1-1.75,5.36,5.75,5.75,0,0,1-4.86,2.3c-1.74,0-2.88-.31-3.43-.93h-.14q0,3.93.08,7H885.9q.33-3.77.33-9.3a60.56,60.56,0,0,0-.71-10.57l2.49-.35.21,1.4h.14a5.6,5.6,0,0,1,4.45-1.6,5.18,5.18,0,0,1,4.28,2A7.35,7.35,0,0,1,898.66,36.58Zm-2.52.34A5.85,5.85,0,0,0,895,33.33a3.64,3.64,0,0,0-3.1-1.49,4.18,4.18,0,0,0-3.65,1.54c.15,3.17.23,5.9.23,8.17a4.48,4.48,0,0,0,3,1A4,4,0,0,0,895,40.87,6.68,6.68,0,0,0,896.14,36.92Z"/><path class="cls-3" d="M912.93,35.55c0,.39,0,.94-.06,1.64l-9.72.17a5,5,0,0,0,1.6,3.46,5.35,5.35,0,0,0,3.86,1.4,15,15,0,0,0,4-.53l-.24,2a11.29,11.29,0,0,1-4,.55,7.41,7.41,0,0,1-5.61-2,6.8,6.8,0,0,1-1.94-4.9A8.26,8.26,0,0,1,902.62,32a5.71,5.71,0,0,1,4.73-2.24,5.25,5.25,0,0,1,4.16,1.62A6,6,0,0,1,912.93,35.55Zm-2.36,0c0-2.66-1.11-4-3.33-4s-3.6,1.38-4,4.13Z"/><path class="cls-3" d="M924.15,30.41l-.64,2.25a5.65,5.65,0,0,0-2-.44A3.32,3.32,0,0,0,918,34.76q0,6.51.09,9.1h-2.51q.23-4.48.23-7a30.61,30.61,0,0,0-.67-6.43l2.48-.35a15.32,15.32,0,0,1,.27,2.08H918a4.34,4.34,0,0,1,3.57-2.25A9,9,0,0,1,924.15,30.41Z"/><path class="cls-3" d="M942.88,43.85l-2.19.08a5.21,5.21,0,0,1-.2-1.3h-.14a6.86,6.86,0,0,1-4.58,1.58A4.69,4.69,0,0,1,932.21,43c-.74-.79-1.11-2.37-1.11-4.76,0-.34,0-.85,0-1.52s0-1.13,0-1.37c0-1.39-.08-3-.24-4.9l2.63-.1c-.11,1.82-.17,3.38-.17,4.67,0,3,.19,4.91.57,5.82a2.51,2.51,0,0,0,2.59,1.35,6,6,0,0,0,3.74-1.13q0-7.87-.15-10.61l2.55-.1c-.07,1.77-.11,4.23-.11,7.36A60.25,60.25,0,0,0,942.88,43.85Z"/><path class="cls-3" d="M957.86,43.86h-2.58q.32-3.72.32-8.13a4,4,0,0,0-.89-3,3.66,3.66,0,0,0-2.53-.8,5.61,5.61,0,0,0-3.71,1.46q0,4.83.06,10.45H946q.24-4.81.24-7a32.39,32.39,0,0,0-.62-6.43l2.49-.35.27,1.73h.11a6.59,6.59,0,0,1,4.49-1.9,5.68,5.68,0,0,1,3.64,1c.86.7,1.29,1.93,1.29,3.7,0,.18,0,.54,0,1.07s0,.88,0,1.06Q957.8,39.18,957.86,43.86Z"/><path class="cls-3" d="M973.17,43.85l-2.11.07a6.73,6.73,0,0,1-.12-1.29h-.15a5.73,5.73,0,0,1-4.42,1.61,5.24,5.24,0,0,1-4.28-2,7.24,7.24,0,0,1-1.59-4.72,8.55,8.55,0,0,1,1.76-5.39,6,6,0,0,1,5-2.27,4.66,4.66,0,0,1,3.28.94h.12q0-3.51-.2-6.9l2.69-.1q-.27,3.6-.27,9.42T973.17,43.85Zm-2.28-2.79q0-4.41-.24-8.49a4.36,4.36,0,0,0-2.86-.94,4.2,4.2,0,0,0-3.59,1.59,6.51,6.51,0,0,0-1.19,4,5.79,5.79,0,0,0,1.13,3.62,3.69,3.69,0,0,0,3.12,1.48A4.64,4.64,0,0,0,970.89,41.06Z"/><path class="cls-3" d="M993.55,39.09q0,5.23-7.3,5.24a17,17,0,0,1-4.73-.61l.5-2.22a14,14,0,0,0,4.52.82q4.82,0,4.81-2.72a2.9,2.9,0,0,0-1.25-2.35,17,17,0,0,0-3.28-1.74,14,14,0,0,1-3.61-2.11,4.68,4.68,0,0,1,0-6.76,6.62,6.62,0,0,1,4.6-1.47,16.24,16.24,0,0,1,4.62.44l-.34,2.25a15.24,15.24,0,0,0-4.58-.68c-2.42,0-3.64.81-3.64,2.44a2.38,2.38,0,0,0,1.05,2,18.72,18.72,0,0,0,3,1.5,15.63,15.63,0,0,1,3.83,2.18A4.92,4.92,0,0,1,993.55,39.09Z"/><path class="cls-3" d="M1007.82,35.55c0,.39,0,.94-.06,1.64l-9.73.17a5.13,5.13,0,0,0,1.6,3.46,5.38,5.38,0,0,0,3.87,1.4,15.05,15.05,0,0,0,4-.53l-.24,2a11.33,11.33,0,0,1-4,.55,7.44,7.44,0,0,1-5.62-2,6.79,6.79,0,0,1-1.93-4.9A8.3,8.3,0,0,1,997.5,32a5.74,5.74,0,0,1,4.74-2.24,5.25,5.25,0,0,1,4.16,1.62A6.09,6.09,0,0,1,1007.82,35.55Zm-2.37,0c0-2.66-1.11-4-3.32-4s-3.61,1.38-4,4.13Z"/><path class="cls-3" d="M1022.09,35.55c0,.39,0,.94-.05,1.64l-9.73.17a5,5,0,0,0,1.6,3.46,5.35,5.35,0,0,0,3.86,1.4,15,15,0,0,0,4-.53l-.24,2a11.29,11.29,0,0,1-4,.55,7.41,7.41,0,0,1-5.61-2,6.8,6.8,0,0,1-1.94-4.9,8.26,8.26,0,0,1,1.77-5.31,5.71,5.71,0,0,1,4.73-2.24,5.24,5.24,0,0,1,4.16,1.62A6,6,0,0,1,1022.09,35.55Zm-2.36,0c0-2.66-1.11-4-3.33-4s-3.6,1.38-4,4.13Z"/><path class="cls-3" d="M1027.49,43.86h-2.72c.17-3.11.25-6.64.25-10.56a84.81,84.81,0,0,0-.41-9.36l2.88-.14q-.27,3.84-.27,9.5Q1027.22,39.12,1027.49,43.86Z"/><path class="cls-3" d="M1042.4,35.55c0,.39,0,.94-.06,1.64l-9.73.17a5.13,5.13,0,0,0,1.6,3.46,5.38,5.38,0,0,0,3.87,1.4,14.93,14.93,0,0,0,4-.53l-.24,2a11.23,11.23,0,0,1-4,.55,7.44,7.44,0,0,1-5.62-2,6.79,6.79,0,0,1-1.93-4.9,8.3,8.3,0,0,1,1.76-5.31,5.74,5.74,0,0,1,4.74-2.24A5.21,5.21,0,0,1,1041,31.4,6,6,0,0,1,1042.4,35.55Zm-2.37,0c0-2.66-1.11-4-3.32-4s-3.61,1.38-4,4.13Z"/></svg>