<svg id="Ebene_1" data-name="Ebene 1" xmlns="http://www.w3.org/2000/svg" viewBox="0 0 43.88 44.02"><defs><style>.cls-1{fill:#fff;}</style></defs><path class="cls-1" d="M17.82,3.54A28.42,28.42,0,0,0,9.1,14.08,24.34,24.34,0,0,0,6.68,27.25a6.71,6.71,0,0,1,2.75-.53,8.42,8.42,0,0,1,6,2.56,8.39,8.39,0,0,1,0,12.18,8.42,8.42,0,0,1-6,2.56A7.79,7.79,0,0,1,5,42.84a9.11,9.11,0,0,1-2.88-3.15A15.47,15.47,0,0,1,.52,35.24,25.38,25.38,0,0,1,0,30,37.59,37.59,0,0,1,3.86,13.49,35.79,35.79,0,0,1,15.33,0l2.49,3Zm25.8,0a28.39,28.39,0,0,0-8.71,10.54,24.34,24.34,0,0,0-2.42,13.17,6.68,6.68,0,0,1,2.75-.53,8.42,8.42,0,0,1,6,2.56,8.41,8.41,0,0,1,0,12.18,8.42,8.42,0,0,1-6,2.56,7.79,7.79,0,0,1-4.39-1.18A9.11,9.11,0,0,1,28,39.69a15.47,15.47,0,0,1-1.64-4.45A25.38,25.38,0,0,1,25.81,30a37.45,37.45,0,0,1,3.86-16.51A35.85,35.85,0,0,1,41.13,0l2.49,3Z"/></svg>